<svg xmlns="http://www.w3.org/2000/svg" viewBox="0 0 50.57 33.08"><title>Aquarius</title><g id="Layer_2" data-name="Layer 2"><g id="Layer_1-2" data-name="Layer 1"><path id="Aquarius" d="M25.15,27.64a23.27,23.27,0,0,0-3.6,2.1c-2.2,1.4-3.5,2.1-4.1,2.1a2.5,2.5,0,0,1-1.8-.8,2.41,2.41,0,0,1-.7-1.8,4.24,4.24,0,0,0-.9-2.2c-.6-.8-1.2-1.2-1.7-1.2a12.38,12.38,0,0,0-3.2,1.8,49.7,49.7,0,0,1-5.4,3.1c-1.8.9-2.9,1.1-3.4.6a1.48,1.48,0,0,1-.1-1.8,4.46,4.46,0,0,1,2-1.8,16.67,16.67,0,0,0,2.3-1.5,43.07,43.07,0,0,1,5-3.1c2.6-1.4,4.2-2.2,4.9-2.2s1.3.5,1.9,1.5a6,6,0,0,1,1,3c0,1.9,1.7,1.8,5-.2.6-.3,1.4-.9,2.6-1.7q3.9-2.7,4.8-2.7.75,0,2.4,3.3c1.1,2.2,1.8,3.3,2,3.3a7,7,0,0,0,2-1.2,10.53,10.53,0,0,1,2.1-1.3,16.1,16.1,0,0,0,3.5-2,13.44,13.44,0,0,1,2.7-1.7c.4-.1.8.1,1.3.6.7.7,1.6,2.5,2.7,5.5q1.05,3.15,1.2,3.9a1.57,1.57,0,0,1-.7,1.3c-.9.6-1.6.7-2.2.3a5.29,5.29,0,0,1-1.3-3.1,6.2,6.2,0,0,0-1.2-2.6c-.4-.5-.7-.8-.9-.8a6.79,6.79,0,0,0-1.7.8c-5,3-8.1,4.6-9.1,4.7-.8,0-1.4-.5-1.9-1.7a3.33,3.33,0,0,1-.3-.6,7.9,7.9,0,0,0-1.4-2.8c-.4-.5-.8-.6-1.1-.5a8.76,8.76,0,0,0-1.2.7A2.47,2.47,0,0,1,25.15,27.64ZM12.85,1.44c1.7-1.1,2.8-1.6,3.4-1.4s1.2,1.2,1.7,3.1,1.3,2.8,2.1,2.8,2.4-.7,4.8-2.2a31.57,31.57,0,0,1,4-2.3,6.23,6.23,0,0,1,2.3-.8,1.59,1.59,0,0,1,1.2.4,2.28,2.28,0,0,1,.6,1.2c.1.5.3,1,.5,1.8a5.08,5.08,0,0,0,.9,1.8,1.27,1.27,0,0,0,1.3.6,18,18,0,0,0,3.6-1.9c3.5-2,5.6-3.2,6.2-3.4a1.38,1.38,0,0,1,1.7.3,1.76,1.76,0,0,1,.9,1.5,6.19,6.19,0,0,0,.6,1.9c.4,1,.8,1.9,1.2,2.8a9,9,0,0,1,.7,2.7,1.62,1.62,0,0,1-.8,1.8c-.9.4-1.4.5-1.7.3a12.92,12.92,0,0,1-1.7-3c-1-2.2-1.6-3.3-2-3.3a9.16,9.16,0,0,0-3,1.3,12.52,12.52,0,0,0-2.7,1.7,9.37,9.37,0,0,1-2.7,1.7,19.08,19.08,0,0,1-2.3,1,2.08,2.08,0,0,1-1.3-.7,7,7,0,0,1-1.5-3,6.07,6.07,0,0,0-.9-2.3c-.6-.4-2.6.5-5.9,2.6s-5.2,3.1-5.7,3.1c-.3,0-.8-.6-1.4-1.7s-1.3-2.2-1.9-3.3-1-1.6-1.2-1.6a3.1,3.1,0,0,0-1.1.5c-.6.3-1.2.8-2.1,1.3a16.37,16.37,0,0,1-2.2,1.2,3.82,3.82,0,0,0-1.7,1.2,8.33,8.33,0,0,1-2.2,1.5,3.39,3.39,0,0,1-2.5.4,1.35,1.35,0,0,1-1-1.5q0-.6,3-2.7A24.3,24.3,0,0,1,8.65,4C9.45,3.54,10.85,2.74,12.85,1.44Z"/></g></g></svg>