<svg xmlns="http://www.w3.org/2000/svg" viewBox="0 0 50.78 49.25"><title>Aries</title><g id="Layer_2" data-name="Layer 2"><g id="Layer_1-2" data-name="Layer 1"><path id="Aries" d="M7.1.14a12,12,0,0,1,4.2.1,8.84,8.84,0,0,1,3.5,1.3,21.38,21.38,0,0,1,5.8,7.9A44.3,44.3,0,0,1,24,21.54c.5,3.8,1,5.7,1.4,5.8s.7-.7,1-2.2c.1-.7.3-1.5.5-2.5a73.61,73.61,0,0,1,2.1-8.4,31.12,31.12,0,0,1,2.4-6.4c1.5-2.9,3-4.9,4.4-5.9A10.79,10.79,0,0,1,41.9.44a13.11,13.11,0,0,1,3.3.3,7.3,7.3,0,0,1,2.3,1.5c3.4,3,4.2,7.8,2.2,14.6a4.8,4.8,0,0,1-2,2.9c-.9.6-1.7.7-2.3,0q-.75-.75,0-2.1a13.32,13.32,0,0,0,1.5-6.3,12.64,12.64,0,0,0-1.3-6,3.66,3.66,0,0,0-2.5-1.7,6,6,0,0,0-3.5.2,8.44,8.44,0,0,0-3.3,3.3,21.57,21.57,0,0,0-2.8,5.7,114.71,114.71,0,0,0-3.7,15.1c-1.2,6.5-2,11.9-2.4,16.5a12,12,0,0,1-.9,4.2c-.4.7-1,.8-1.9.3-.4-.2-.7-.8-.8-1.9s-.3-3.4-.5-6.8a87.73,87.73,0,0,0-2.1-16,54.56,54.56,0,0,0-4-12.7,18.58,18.58,0,0,0-3.6-5.3,6.74,6.74,0,0,0-3.8-2,8.26,8.26,0,0,0-2.3,0,5.2,5.2,0,0,0-1.7,1.7c-2,2.5-2.2,6-.7,10.4.9,2.6.8,3.9-.4,3.7a3.57,3.57,0,0,1-1.3-.6c-.8-.5-1.5-1.7-2.3-3.6a15.14,15.14,0,0,1-1.1-5,12.17,12.17,0,0,1,2.4-6.6C4.1,1.74,5.6.44,7.1.14Z"/></g></g></svg>