<svg xmlns="http://www.w3.org/2000/svg" viewBox="0 0 47.7 40.7" id="Ascendant"><path d="M10.22,2.4a2.92,2.92,0,0,1,2.4-1.3,2.14,2.14,0,0,1,2.2,1.1c.2.5.9,2.7,2,6.4s2.3,7.8,3.5,12.3,2.1,7.5,2.6,8.9a66.08,66.08,0,0,1,1.9,6.8,10.22,10.22,0,0,1,.5,3.5,2,2,0,0,1-1.6.5c-.7,0-1.4-.8-2.2-2.3a16.41,16.41,0,0,1-1.7-5c-.3-1.7-.9-2.8-1.7-3.2s-2.9-.5-6-.4c-1.2,0-2.1.1-2.7.1a5.66,5.66,0,0,0-1.8.3,5.89,5.89,0,0,0-1.3.5,3.06,3.06,0,0,0-.8,1,5.34,5.34,0,0,0-.6,1.4c-.1.5-.2,1.2-.4,2.2a12.89,12.89,0,0,1-1,3.3,3.12,3.12,0,0,1-1.4,1.7,1.37,1.37,0,0,1-1.5-.1A2.9,2.9,0,0,1,0,37.7c.2-1.3,1.3-5.2,3.2-11.8,1.1-3.6,2-6.9,2.8-9.8s1.4-5.1,1.8-6.4.7-2.6.9-3.6.4-1.7.5-2.1a3.39,3.39,0,0,1,.3-.8C9.82,3.1,9.92,2.8,10.22,2.4ZM16.42,21c-.4-1.2-.9-3-1.7-5.5S13.42,11,13,9.7s-.7-2-.9-2-.3.3-.5,1-.4,1.6-.7,2.9-.6,2.4-.9,3.3c-1.9,5.9-2.6,9.1-2.2,9.7.1.2,1.7.4,4.6.4s4.5,0,4.7-.3C17.42,24.6,17.12,23.3,16.42,21ZM36.32.8a15.68,15.68,0,0,1,3.9-.8,17.8,17.8,0,0,1,4.2.7,6.58,6.58,0,0,1,2.4.9,2.13,2.13,0,0,1,.7,1.5c.2,1.5.1,2.5-.3,2.8s-1.2.2-2.4-.3a11.2,11.2,0,0,0-7-.5,9.5,9.5,0,0,0-5.6,3.6,11.37,11.37,0,0,0-1.7,3.5A33.38,33.38,0,0,0,29,17.9a20,20,0,0,0,.1,7.3,16.65,16.65,0,0,0,3.1,7.2A9.5,9.5,0,0,0,38,36.2a8.93,8.93,0,0,0,6.6-1c1.2-.7,2-1,2.5-.8s.7.9.5,2.1a4.41,4.41,0,0,1-2.6,3,11.89,11.89,0,0,1-5.6,1.2,16.66,16.66,0,0,1-3.9-.3,13.39,13.39,0,0,1-3.1-1.9,18,18,0,0,1-4.5-5.1,19.72,19.72,0,0,1-2.2-7.2c-.9-6.1-.4-11.5,1.7-16.3S32.42,2,36.32.8Z"/></svg>