<svg xmlns="http://www.w3.org/2000/svg" viewBox="0 0 46.15 47.14" id="Ascending_Node"><path data-name="Ascending Node" d="M14.2,2.2A20.39,20.39,0,0,1,18.3.4,23.45,23.45,0,0,1,22.9,0a25.13,25.13,0,0,1,4.4.3,12.44,12.44,0,0,1,3.1,1c4.5,2.2,7.7,5,9.5,8.5a11.33,11.33,0,0,1,1.3,3.6,30.22,30.22,0,0,1,.3,5.2c0,3.8-.4,6.4-1,7.6a6.05,6.05,0,0,0-1,3.7,3.61,3.61,0,0,0,2,2.5c2.4,1.5,3.9,3.3,4.4,5.3a7.25,7.25,0,0,1-1.3,6.2,8.28,8.28,0,0,1-1.7,1.9,5.72,5.72,0,0,1-2.4.7c-5.4.8-8.5-1.3-9.1-6.3a6.41,6.41,0,0,1,.4-3.6c.4-1.2,1.8-4.1,4-8.8q2.7-5.4,3-7.2a13.08,13.08,0,0,0-.6-5.2,16.33,16.33,0,0,0-1.6-3.7,24.63,24.63,0,0,0-3-3.5,15.62,15.62,0,0,0-5.5-3.9,13.94,13.94,0,0,0-6.3-.5,14.68,14.68,0,0,0-8,3.5A13.42,13.42,0,0,0,9,14.1,23,23,0,0,0,8.6,21a27.79,27.79,0,0,0,.6,4.2,16.71,16.71,0,0,0,1.5,3.5,67.54,67.54,0,0,1,4.1,8,5.82,5.82,0,0,1,.2,3.9c-.9,3.3-2.7,5.4-5.3,6.2S4.5,47,2,44.7A4.84,4.84,0,0,1,.3,42.6,12.45,12.45,0,0,1,0,39.2a8.26,8.26,0,0,1,.9-4.4A12.72,12.72,0,0,1,5,31.5a2.9,2.9,0,0,0,1.6-2.1,10.17,10.17,0,0,0-1.2-4,17.58,17.58,0,0,1-1.2-6.8,13.85,13.85,0,0,1,1.2-6.3,10.53,10.53,0,0,0,1.2-3c0-.7.9-1.8,2.6-3.4A23.15,23.15,0,0,1,14.2,2.2Zm-4.8,34a3.52,3.52,0,0,0-2.9-.5,5.55,5.55,0,0,0-2.2,1.4,3.41,3.41,0,0,0-.9,2.4,3.52,3.52,0,0,0,1.2,2.6c1.3,1.3,2.6,1.6,4,.9a4.22,4.22,0,0,0,2-4C10.6,37.5,10.2,36.5,9.4,36.2Zm31.5.2c-1.7-1.8-3.4-1.9-5-.1a3.69,3.69,0,0,0-.6,4.8,3.4,3.4,0,0,0,3.4,2.1,3.25,3.25,0,0,0,2.4-1.3C42.6,40.1,42.6,38.3,40.9,36.4Z"/></svg>