<svg xmlns="http://www.w3.org/2000/svg" viewBox="0 0 49.12 51.44"><title>Biquintile</title><g id="Layer_2" data-name="Layer 2"><g id="Layer_1-2" data-name="Layer 1"><path id="Biquintile" d="M.23.34c.2-.3.9-.4,1.9-.3l1.7.1.1,8a58.3,58.3,0,0,0,.4,7.9c.2,0,.7-.3,1.5-1a18.1,18.1,0,0,1,2.7-1.8,5.58,5.58,0,0,1,3-.6,8.14,8.14,0,0,1,3.7,2.6,12.6,12.6,0,0,1,2.6,4.6c.4,1.8.9,2.7,1.3,2.5s.5-.9.5-2.4a28.47,28.47,0,0,1,.8-5.7,19,19,0,0,1,1.7-5,17.43,17.43,0,0,1,5.1-6,12.2,12.2,0,0,1,6.9-1.8,12.54,12.54,0,0,1,8.1,2.7c2.2,1.8,3.9,4.6,5.3,8.4a32.89,32.89,0,0,1,1.6,10.1,27.84,27.84,0,0,1-1.4,9.8q-2.55,7.05-4.2,8.1c-.7.4-1.1.9-1.1,1.4s.6,1.5,1.7,2.7a10.37,10.37,0,0,0,3,2.5,2.8,2.8,0,0,1,1.3,1,3.41,3.41,0,0,1,.4,1.6,2.37,2.37,0,0,1-.3,1.5c-.2.2-.7.2-1.4.2a5.3,5.3,0,0,1-3.3-1.4,15.45,15.45,0,0,1-3.1-3.5l-1.5-2.4-4.3-.1c-4.2,0-7.4-1.1-9.8-3.3s-4-5.8-4.9-10.6c-.5-2.8-1-4.1-1.4-3.9-.2.1-.3.9-.3,2.3a21,21,0,0,1-1.2,5.9,23.26,23.26,0,0,1-2.5,5.6c-1.6,2.3-4.6,3.4-8.8,3.4a13.43,13.43,0,0,1-3.9-.3c-1-.5-1.5-2.4-1.7-5.7-.1-1.7-.2-7.1-.2-16.2C-.07,7.74-.07.74.23.34Zm10.4,17c-.7-.4-1.2-.6-1.5-.5s-.9.4-1.8,1.2a7.52,7.52,0,0,0-2.7,3.9,41,41,0,0,0-.6,8.8c0,3.8.1,6.1.2,7a2.3,2.3,0,0,0,1,1.8,4.45,4.45,0,0,0,3.4-.1c2.9-.9,4.5-4.7,4.8-11.2a22.42,22.42,0,0,0-.6-7.1C12.33,19.14,11.63,17.84,10.63,17.34Zm29.3-8.8a9.7,9.7,0,0,0-2.3-1.8,8.4,8.4,0,0,0-2.8-.6,8.16,8.16,0,0,0-4.7,1,11.13,11.13,0,0,0-3.7,4.2,8.62,8.62,0,0,0-1.4,3.6c-.1,1.1-.2,3.8-.2,8.2a61.55,61.55,0,0,0,.3,8.2,13,13,0,0,0,1.5,3.7c2.3,3.6,4.9,5.3,8.1,5,2.9-.2,3-1.8.1-4.7a8.39,8.39,0,0,1-2.3-3.2,2,2,0,0,1,.8-2.2,1.2,1.2,0,0,1,1.4,0,16.69,16.69,0,0,1,3.1,2.9c2.4,2.4,3.7,3.4,4,3a13.17,13.17,0,0,0,1.8-5,35.29,35.29,0,0,0,.8-7.2C44.23,16.34,42.73,11.34,39.93,8.54Z"/></g></g></svg>