<svg xmlns="http://www.w3.org/2000/svg" viewBox="0 0 24.1 53.78"><title>Black Moon Lilith</title><g id="Layer_2" data-name="Layer 2"><g id="Layer_1-2" data-name="Layer 1"><path id="Black_Moon_Lilith" data-name="Black Moon Lilith" d="M13.5.84c3.7-1.1,6.6-1.1,8.6-.1s2,1.6-.4,2.1c-1.3.2-3.1,1.5-5.3,3.8a20.6,20.6,0,0,0-3,3.5,10.24,10.24,0,0,0-.9,3.6c-.5,4.7,0,8.4,1.4,11.3s4.2,5.2,8,6.9c1.5.7,2.2,1.2,2.2,1.5q0,.75-6.6,1.5a1.35,1.35,0,0,0-1.3.6,15.87,15.87,0,0,0-.2,3.1v3.6l3.9.3a10.73,10.73,0,0,1,3.2.5,1.3,1.3,0,0,1,.9,1.1,1.89,1.89,0,0,1-.9,2,9.4,9.4,0,0,1-3.8.8l-3.3.2-.2,2.8a4.88,4.88,0,0,1-1.2,3.4,1.38,1.38,0,0,1-2.1-.1,5.38,5.38,0,0,1-1.2-3.5L11.1,47l-3.3-.4a7.41,7.41,0,0,1-2.8-.5c-.3-.2-.5-.7-.5-1.6s.2-1.4.5-1.6a8,8,0,0,1,2.8-.5l3.3-.3.2-4a28.54,28.54,0,0,0-.1-3.6c-.1-.5-.5-.8-1.1-1A13.7,13.7,0,0,1,5.4,30a19.37,19.37,0,0,1-3.9-5.3A16.74,16.74,0,0,1,0,17.64a16.43,16.43,0,0,1,.9-5.8,21.31,21.31,0,0,1,3.5-5.5,17,17,0,0,1,3.7-3.5C9.7,2.14,11.4,1.54,13.5.84Z"/></g></g></svg>