<svg xmlns="http://www.w3.org/2000/svg" viewBox="0 0 51.29 38.27" id="Cancer"><path d="M34.93,15.94a10.93,10.93,0,0,1,7.5-.7c2.9.6,5,1.8,6.2,3.6a9.67,9.67,0,0,1,1.2,5.3,10.48,10.48,0,0,1-1.1,5.3c-2.4,3.5-7,6-13.9,7.6a48.64,48.64,0,0,1-20.8.2,41.48,41.48,0,0,1-9.4-3.1c-2.8-1.3-4.3-2.5-4.5-3.5-.2-1.4-.2-2.3.2-2.6s1.2-.1,2.4.5a98.32,98.32,0,0,0,13,4.3,35.19,35.19,0,0,0,9.1,1.2c3.8.1,6.4,0,7.8-.6l1.6-.6-2-2.4a7.24,7.24,0,0,1-1.6-2.7,19.84,19.84,0,0,1-.4-3.5,10.29,10.29,0,0,1,1.1-5A7.82,7.82,0,0,1,34.93,15.94ZM16,1a46.62,46.62,0,0,1,18.6-.2q3.75.75,6.3,1.5a72,72,0,0,1,6.8,2.8A10.32,10.32,0,0,1,51,7c.4.4.3,1.1-.1,1.9s-.9,1.2-1.3,1.2a7.73,7.73,0,0,1-2.8-1,51.34,51.34,0,0,0-9.4-3.2,70.35,70.35,0,0,0-10.9-1.7,52.62,52.62,0,0,0-7.1.1c-1.8.2-2.7.6-2.7,1.1s.6,1.3,1.9,2.9a10.31,10.31,0,0,1,2.1,5.1,9,9,0,0,1-1,4.9,8.59,8.59,0,0,1-3.7,3.6,11.09,11.09,0,0,1-5.8,1.4,14.24,14.24,0,0,1-3.3-.3,11.67,11.67,0,0,1-2.7-1.4,10.22,10.22,0,0,1-2.1-2,6.94,6.94,0,0,1-1-2.7c-1.1-4.5.1-8.1,3.5-10.9a23.76,23.76,0,0,1,4.8-3.1A37.77,37.77,0,0,1,16,1Zm-.1,8.1a7,7,0,0,0-5.4-1.9,7.07,7.07,0,0,0-5.4,2.2,4.72,4.72,0,0,0-1.2,1.8,10.19,10.19,0,0,0-.3,2.9,10.87,10.87,0,0,0,.3,3.1,6.68,6.68,0,0,0,1.7,2.1A6.64,6.64,0,0,0,9.33,21a7.38,7.38,0,0,0,4.1-.8,8.24,8.24,0,0,0,3.1-2.6,6.89,6.89,0,0,0,.9-3.8,9.43,9.43,0,0,0-.2-2.7A4.57,4.57,0,0,0,15.93,9.14Zm28,9.3a6.55,6.55,0,0,0-3.3-1,10.53,10.53,0,0,0-4,1.1,6.41,6.41,0,0,0-3.6,3.2,5.2,5.2,0,0,0,0,4.4,6.54,6.54,0,0,0,2.9,3.6,8,8,0,0,0,4.2,1.3,7.64,7.64,0,0,0,4.2-1.3,7.31,7.31,0,0,0,2.9-3.6,4.4,4.4,0,0,0,.5-2.2,5.91,5.91,0,0,0-.8-2.2,9.22,9.22,0,0,0-1.3-1.9A7,7,0,0,0,43.93,18.44Z"/></svg>