<svg xmlns="http://www.w3.org/2000/svg" viewBox="0 0 46.58 43.7" id="Capricorn"><path d="M.08.9Q.38,0,2.18,0a5.68,5.68,0,0,1,3.3,1.1,7.69,7.69,0,0,1,2.7,3.6,12.37,12.37,0,0,1,1.3,4.9c0,1.5.3,2.4,1,2.8a.47.47,0,0,0,.6-.1,8.26,8.26,0,0,0,1.4-2.6c.6-1.3,1.1-2.5,1.6-3.6a13.19,13.19,0,0,1,2.3-3.3A6.76,6.76,0,0,1,19.88.7c1.6-.4,2.7-.4,3.2.1.8.8,1.5,3.8,2.2,9,.2,1.2.5,2.9.8,5.3.6,4.6,1.1,7.2,1.4,7.7s.8.4,1.6-.2,1.9-1.3,3.2-2.2a9.75,9.75,0,0,1,3.3-1.6c2.4-.4,4.8.4,7.3,2.6s3.7,4.5,3.7,6.9a8.94,8.94,0,0,1-1.5,4.7,7.28,7.28,0,0,1-3.6,3.2,13.77,13.77,0,0,1-4.5.9,8.82,8.82,0,0,1-4-.5L28.08,34l-1.7,2.6A18,18,0,0,1,21,42.4a9.94,9.94,0,0,1-6.5,1.2,5.07,5.07,0,0,1-2-.4c-.3-.2-.4-.6-.4-1.2s.2-1.2.5-1.3a8.16,8.16,0,0,1,2.7-.4,7.75,7.75,0,0,0,3-.5,9.7,9.7,0,0,0,2.3-1.8c1.4-1.4,2.1-2.5,2.1-3.1a6.45,6.45,0,0,1,1.2-2.8,5.07,5.07,0,0,0,.8-2.1,6.79,6.79,0,0,0-.3-1.9c-.2-.7-.6-2.4-1.2-5s-1-5.7-1.4-9.4c-.7-5.8-1.2-8.9-1.5-9.2-.1-.1-.5,0-1,.6a11.12,11.12,0,0,0-1.9,2.2,16.65,16.65,0,0,0-1.8,2.8,25.6,25.6,0,0,0-2.1,5.6A63.4,63.4,0,0,0,12,22.2a9,9,0,0,1-.6,2.8c-.2.3-.7.4-1.6.4H8l-.4-6.6a46.64,46.64,0,0,0-1.1-8.1,17.42,17.42,0,0,0-2.6-5.5C3.08,4,2.48,3.5,2,3.5a1.76,1.76,0,0,1-1.5-.9A1.9,1.9,0,0,1,.08.9ZM41.48,24a5.27,5.27,0,0,0-3-1.4,6.6,6.6,0,0,0-3.7.1,10.38,10.38,0,0,0-1.2.7,19.62,19.62,0,0,0-2.1,1.6,7.28,7.28,0,0,0-1.8,2.2,3.16,3.16,0,0,0-.3,2.7,5.58,5.58,0,0,0,2.2,2.8,8.65,8.65,0,0,0,4.9,1.6,6.38,6.38,0,0,0,4.4-1.8,6.91,6.91,0,0,0,1.7-2,7.84,7.84,0,0,0,.4-2.6C42.78,26.1,42.38,24.8,41.48,24Z"/></svg>