<svg xmlns="http://www.w3.org/2000/svg" viewBox="0 0 29.51 46.5"><title>Ceres</title><g id="Layer_2" data-name="Layer 2"><g id="Layer_1-2" data-name="Layer 1"><path id="Ceres" d="M10.51.67q5.7-1.35,9.6,0a16.55,16.55,0,0,1,4.4,2.6C26.21,4.57,27,5.48,27,6a5.43,5.43,0,0,0,1.2,2.3,5.23,5.23,0,0,1,1,2.3,19.41,19.41,0,0,1,.3,4.1,19.08,19.08,0,0,1-.8,5.9,15.73,15.73,0,0,1-2.9,4.8,14.25,14.25,0,0,1-3.6,3,7.73,7.73,0,0,1-3.5,1.5,2.06,2.06,0,0,0-1.9,1.2,4.62,4.62,0,0,0-.6,2.9,2,2,0,0,0,.6,1.4,5.75,5.75,0,0,0,2.1.4q2.55.15,2.7.6c.1.9.2,1.6.2,2.1a1.82,1.82,0,0,1-.6,1.4,5.57,5.57,0,0,1-2.4.8,3.31,3.31,0,0,0-2,.6c-.3.3-.4.9-.5,2a3.39,3.39,0,0,1-1.4,2.9,1.62,1.62,0,0,1-2.1-.1,5.43,5.43,0,0,1-.9-3.1,5.94,5.94,0,0,0-.4-2.2,3,3,0,0,0-1.9-.4,3.36,3.36,0,0,1-1.8-.3,3.12,3.12,0,0,1-.3-1.8c0-1,.1-1.6.4-1.8a4.14,4.14,0,0,1,2-.5l2.4-.4-.2-4c-.1-2.7,0-4.1.6-4.2a61,61,0,0,0,6.9-2.4,10.37,10.37,0,0,0,3.1-2,11.76,11.76,0,0,0,2.2-3.5,9.74,9.74,0,0,0,1.3-4.9,11.9,11.9,0,0,0-1.5-5.1,11.12,11.12,0,0,0-3.9-4c-1.9-1.3-3.5-2-4.8-2a13.64,13.64,0,0,0-7.6,2.6,12.07,12.07,0,0,0-4.9,6,3.67,3.67,0,0,1-1,1.7c-.5.5-.9.8-1.3.8a1,1,0,0,1-1-.4c-.3-.5-.3-1.7.1-3.5a11.38,11.38,0,0,1,1.8-4.3A13.4,13.4,0,0,1,10.51.67Z"/></g></g></svg>