<svg xmlns="http://www.w3.org/2000/svg" viewBox="0 0 25.09 48.43" id="Chiron"><path d="M10,.43a1.59,1.59,0,0,1,1.4-.4,2.64,2.64,0,0,1,1.6.7,3.29,3.29,0,0,1,.7,2.4,8.66,8.66,0,0,0,.6,3.2l.6,1.7,3.4-3.5q3.45-3.45,4.5-3c1,.3,1.3.9,1.1,1.7a13.12,13.12,0,0,1-2.8,4l-3.4,3.7,7.4,6.6-1.3,1.4c-.9,1-1.5,1.4-2,1.4-.3,0-1.5-1-3.6-2.9s-3.2-2.8-3.5-2.7-.5,2.1-.5,5.7v5.4l2.7,1.2a17.88,17.88,0,0,1,2.4,1.5,10.39,10.39,0,0,1,2.1,2.1,11.43,11.43,0,0,1,1.6,2.6,13.64,13.64,0,0,1,.4,3.6c.1,6.1-2.8,9.9-8.7,11.2a13.76,13.76,0,0,1-3.1.4,19.59,19.59,0,0,1-3.3-.6,10.33,10.33,0,0,1-4.2-2.1,13.33,13.33,0,0,1-2.9-4,9.36,9.36,0,0,1-.4-8.3c1.2-2.7,3.5-4.9,6.9-6.7l1.9-1V13.23C9.59,4.93,9.69.63,10,.43Zm7.1,31.1a7.29,7.29,0,0,0-2.3-1.2,11.52,11.52,0,0,0-3-.3,8,8,0,0,0-3.1.4,8.25,8.25,0,0,0-2.4,1.7,5.65,5.65,0,0,0-1.9,2.2,10.87,10.87,0,0,0-.3,3.1,7.34,7.34,0,0,0,.4,3.1,10,10,0,0,0,2.2,2.4,12.28,12.28,0,0,0,2.6,1.8,6.91,6.91,0,0,0,2.8.4,6.38,6.38,0,0,0,2.7-.4,6.12,6.12,0,0,0,2.2-1.5,7.77,7.77,0,0,0,3.1-6A6.39,6.39,0,0,0,17.09,31.53Z"/></svg>