<svg xmlns="http://www.w3.org/2000/svg" viewBox="0 0 39.25 38.2" id="Conjunction"><path d="M21.5,14.3c.6,0,3.4-2.4,8.5-7.2S37.8-.1,38,0q.6.15,1.2,1.2c.2.3-.2,1.1-1.2,2.3S34.9,6.9,31.8,10l-7.9,7.8,1.2,1.9a10.47,10.47,0,0,1,1.3,5.7c0,2.4-.4,4.1-1.2,5.2a5.05,5.05,0,0,0-1.2,2c0,1-1.4,2.1-4.1,3.5a15.67,15.67,0,0,1-6.8,2.1,13,13,0,0,1-4.6-1.3,13.21,13.21,0,0,1-4.3-2.6,14,14,0,0,1-2.9-4.4A11.93,11.93,0,0,1,0,25a12.7,12.7,0,0,1,1.1-4.6A14.84,14.84,0,0,1,3.8,16,14,14,0,0,1,11,12.1c3-.6,5.5-.4,7.4.8A6,6,0,0,0,21.5,14.3Zm-2.9,3.6a9.23,9.23,0,0,0-3.7-1.4,13.19,13.19,0,0,0-4.4-.1c-.9.2-2,1.1-3.5,2.7a11.07,11.07,0,0,0-1.8,2.5,8.71,8.71,0,0,0-.3,3.2,9.37,9.37,0,0,0,.8,4.3,11.9,11.9,0,0,0,3.4,3.4,6.73,6.73,0,0,0,4.3,1.4,8.86,8.86,0,0,0,4.3-1.1,8.2,8.2,0,0,0,3.2-3.2A8.21,8.21,0,0,0,22.2,25,8.76,8.76,0,0,0,18.6,17.9Z"/></svg>