<svg xmlns="http://www.w3.org/2000/svg" viewBox="0 0 46.17 47.53" id="Descending_Node"><path data-name="Descending Node" d="M4.4.53a8,8,0,0,1,5.7,0A7.34,7.34,0,0,1,14.3,4a7.75,7.75,0,0,1,.7,4.4,13.3,13.3,0,0,1-1.6,5,52.86,52.86,0,0,0-4,7.9A21.72,21.72,0,0,0,8.5,28a23.38,23.38,0,0,0,.3,4.5,9.4,9.4,0,0,0,1.3,3,16.65,16.65,0,0,0,5.7,5.8,13.57,13.57,0,0,0,7.2,2.3,13.25,13.25,0,0,0,5.8-1.3A15.17,15.17,0,0,0,33.6,39a22.53,22.53,0,0,0,3.4-4.7,13.72,13.72,0,0,0,1.5-5.4,17.13,17.13,0,0,0-.9-5.5c-.2-.5-1-2-2.2-4.4s-2.2-4.6-3-6.5A12.55,12.55,0,0,1,31.2,8a9,9,0,0,1,.9-3.4A5.88,5.88,0,0,1,34,1.83q1.05-.9,4.8-.9c2.2,0,3.8.3,4.8,1a6,6,0,0,1,2.2,3.6,8.1,8.1,0,0,1,0,4.9,10.61,10.61,0,0,1-3.3,4.1c-2,1.6-3.1,2.5-3.2,2.9s.3,1.4,1.1,3.1a13.5,13.5,0,0,1,1.1,3.2,31.28,31.28,0,0,1,.3,5.1,30.22,30.22,0,0,1-.3,5.2,11.5,11.5,0,0,1-1.2,3.2,22,22,0,0,1-4.1,5,21.85,21.85,0,0,1-5.6,3.9,16.62,16.62,0,0,1-7.1,1.4,20.57,20.57,0,0,1-7.6-1.4,18.86,18.86,0,0,1-6.4-4.4,17.06,17.06,0,0,1-4.1-6.3,23,23,0,0,1-1.1-6.8,17.94,17.94,0,0,1,.8-6.2,15.56,15.56,0,0,0,1.3-4.6,2.61,2.61,0,0,0-1.4-2,14.21,14.21,0,0,1-4.1-3.3A8.1,8.1,0,0,1,0,8.23a9.52,9.52,0,0,1,1-4.8A5.8,5.8,0,0,1,4.4.53Zm5.2,4.1a4.13,4.13,0,0,0-2.8-.5,4,4,0,0,0-2.2,1.2,4.4,4.4,0,0,0-1,2.3,4.05,4.05,0,0,0,.9,2.8,3.3,3.3,0,0,0,2.2,1.3,4.92,4.92,0,0,0,2.9-.6q1.2-.6,1.2-3.3C10.8,6,10.4,4.93,9.6,4.63Zm31.8.5a3.87,3.87,0,0,0-4.3-.9,3.55,3.55,0,0,0-2.3,3.7,3.47,3.47,0,0,0,1.3,2.9,4.06,4.06,0,0,0,3,1,3.21,3.21,0,0,0,2.6-1.6Q43.5,7.22,41.4,5.13Z"/></svg>