<svg xmlns="http://www.w3.org/2000/svg" viewBox="0 0 41.7 42.27"><title>Earth</title><g id="Layer_2" data-name="Layer 2"><g id="Layer_1-2" data-name="Layer 1"><path id="Earth" d="M18.4.34A10,10,0,0,1,21.8,0,26.92,26.92,0,0,1,26,1a27.35,27.35,0,0,1,8.2,4.3,20.15,20.15,0,0,1,5.2,6.8,30.07,30.07,0,0,1,1.9,4.4,25.46,25.46,0,0,1,.4,4.9,28.4,28.4,0,0,1-.2,4.7,11.51,11.51,0,0,1-1.4,3.5,25.6,25.6,0,0,1-7.4,8.8,18.91,18.91,0,0,1-9.6,3.8,23.54,23.54,0,0,1-6.3-.5,23.47,23.47,0,0,1-6-2,24,24,0,0,1-5.1-4c-2-2-3.1-3.3-3.1-3.9a6.69,6.69,0,0,0-1.3-3A7.88,7.88,0,0,1,.3,26a29.64,29.64,0,0,1-.3-5.1,31.62,31.62,0,0,1,.3-5.3,12.72,12.72,0,0,1,1.3-3.5,29.53,29.53,0,0,1,3.6-5,18.61,18.61,0,0,1,4.1-3.7,21.92,21.92,0,0,1,3.9-1.6C15.1,1.24,16.9.74,18.4.34Zm.2,11.6c-.1-4.5-.4-6.9-.9-7.3a1.51,1.51,0,0,0-1.4-.1,21.16,21.16,0,0,0-8.4,5c-2.4,2.4-3.6,4.8-3.8,7.2L4,19.44l6.8.3c4.6.2,7.1.2,7.4,0S18.7,16.84,18.6,11.94ZM18,38c.4-.3.7-1.8.9-4.3a33.93,33.93,0,0,0,.1-6.3,9.72,9.72,0,0,0-.8-3.7c-.4-.8-.9-1.1-1.5-1s-2.7.3-6.7.5l-6,.3.1,2.1c.2,2.2,1.4,4.5,3.5,6.9a16.11,16.11,0,0,0,6.8,4.9Q17.4,38.64,18,38Zm9.5-32.3q-3-1.35-3.6-.9c-.5.4-.9,2.2-1.2,5.5a12.28,12.28,0,0,1-.1,1.7c-.3,4.8-.3,7.4,0,7.7s2.9.3,7.8.2l7.3-.3-.4-1.9a15.8,15.8,0,0,0-3.4-7A15.44,15.44,0,0,0,27.5,5.74Zm7.9,17.6c-.6,0-1.5,0-2.7-.1s-2.1-.1-2.9-.1-1.9.1-3.6.2l-3,.4-.1,6.9c-.1,4.6-.1,7.1.1,7.6.1.3.5.4.9.4a7.77,7.77,0,0,0,2.6-.9,19.68,19.68,0,0,0,7.6-5.3c2-2.4,3.1-4.7,3.1-7,0-1-.1-1.5-.3-1.7S36.3,23.34,35.4,23.34Z"/></g></g></svg>