<svg xmlns="http://www.w3.org/2000/svg" viewBox="0 0 23.63 47.82"><title>Eris</title><g id="Layer_2" data-name="Layer 2"><g id="Layer_1-2" data-name="Layer 1"><path id="Eris" d="M9.87.63c.2-.5.8-.7,1.9-.6a1.68,1.68,0,0,1,1.4.6,8.57,8.57,0,0,1,.5,2.8l.3,3.3,3.5.3a7.71,7.71,0,0,1,3.9,1,1.68,1.68,0,0,1,.5,2.2c-.2.6-1.4.9-3.4.9h-1.6a5.74,5.74,0,0,0-1.2.1c-.5.1-.8.2-.9.2s-.3.2-.5.6a2,2,0,0,0-.4.8,13.8,13.8,0,0,0-.1,1.4,12.14,12.14,0,0,0-.1,1.8v8.9l2.2,1.1a14,14,0,0,1,6.4,5.8,9.08,9.08,0,0,1,1,7.3,10.58,10.58,0,0,1-1.5,3.6,19,19,0,0,1-3.1,2.8,10.53,10.53,0,0,1-3.1,1.9,14,14,0,0,1-3.7.4,12.58,12.58,0,0,1-5.5-1,13.72,13.72,0,0,1-4.3-3.6,9.23,9.23,0,0,1-2-5.5,10.34,10.34,0,0,1,.9-6,10.86,10.86,0,0,1,3-3.3,18.91,18.91,0,0,1,4.3-2.7,1.73,1.73,0,0,0,1.2-1.3c.1-.7.1-2.6.1-5.8l-.2-6.4-3.5-.4a12.22,12.22,0,0,1-3.9-.9,2.05,2.05,0,0,1-.7-2.1,1.55,1.55,0,0,1,.8-1.2,11,11,0,0,1,3.3-.5l3.9-.3.2-2.7A11.14,11.14,0,0,1,9.87.63Zm7.2,30.5a7.35,7.35,0,0,0-4.2-1.7A9.63,9.63,0,0,0,8,30a7.45,7.45,0,0,0-3.1,2.8,6.68,6.68,0,0,0-1.3,3.8,7.24,7.24,0,0,0,3.6,6.2A8.52,8.52,0,0,0,9.47,44a14.05,14.05,0,0,0,3.1.1,8.87,8.87,0,0,0,3.1-.7,10.26,10.26,0,0,0,2.5-2.2c1.6-1.8,2.3-3.5,2.1-5A10.57,10.57,0,0,0,17.07,31.13Z"/></g></g></svg>