<svg xmlns="http://www.w3.org/2000/svg" viewBox="0 0 31.94 50.26"><title>Hygiea</title><g id="Layer_2" data-name="Layer 2"><g id="Layer_1-2" data-name="Layer 1"><path id="Hygiea" d="M15.23.69c1.2-.9,2-.9,2.4-.1s.6,3.2.8,7.1c.1,3.5.3,5.6.4,6.4a1.31,1.31,0,0,0,1.1,1.3q1.5.15,4.2-2.4a10.84,10.84,0,0,0,3.3-5,5.74,5.74,0,0,0,.4-2.6,7,7,0,0,0-1.3-2.3q-2-2.55-.6-3c1-.2,2.4.5,4.5,2.1a4.19,4.19,0,0,1,1.2,1.6,10.4,10.4,0,0,1,.3,3.1,13.2,13.2,0,0,1-.4,3.2,8.74,8.74,0,0,1-1.4,2.7c-1.2,1.7-1.9,2.6-2.1,2.6s-.7.5-1.3,1.4a2.21,2.21,0,0,0-.6,1.7,19.17,19.17,0,0,0,1.4,3.1c1.2,2.3,1.8,4.2,1.6,5.8a10.18,10.18,0,0,1-2.8,5.3l-2.4,2.9,1.2,2.4a11.08,11.08,0,0,1,.9,2.5,6.62,6.62,0,0,1-.3,2.6,8.8,8.8,0,0,1-1.7,3.5,12.64,12.64,0,0,1-3.2,2.4,10.2,10.2,0,0,1-7.6.9A9.6,9.6,0,0,1,7.43,45,9.92,9.92,0,0,1,6,41.39a6.93,6.93,0,0,1,1.2-3.3l1.3-2.5L7,34.39a15.23,15.23,0,0,1-3-3.7,10,10,0,0,1-1.1-4.5,6.38,6.38,0,0,1,.4-2.7A9,9,0,0,1,5,21.09l2-2.4-2.7-2.8a17,17,0,0,1-3.6-5.4,7.84,7.84,0,0,1-.6-4.6,8.57,8.57,0,0,1,1.3-3.2A4.28,4.28,0,0,1,3.34,1c1.2-.5,1.9-.5,2.2,0s.1,1.5-.5,3a5.68,5.68,0,0,0-.1,4.6c.6,1.4,1.9,2.8,4.1,4.4.9.7,1.5,1.2,2,1.5a2.85,2.85,0,0,0,1.4.6c.5.1.8.1.9-.1s.3-.6.5-1.2.2-1.4.3-2.2.1-1.9.1-3.5a46,46,0,0,1,.4-5.8A1.58,1.58,0,0,1,15.23.69ZM14,26.59c-.1-3.9-.4-5.9-.8-6-.6-.2-1.5.2-2.8,1a7.12,7.12,0,0,0-2.8,3.6c-.6,1.5.2,3.3,2.3,5.5,1.9,1.8,3.1,2.4,3.6,1.9S14.14,30.19,14,26.59Zm.2,15.1c0-2.2-.2-3.3-.6-3.5s-1.1,0-2.1.9a3.81,3.81,0,0,0-1.5,2.2,4.74,4.74,0,0,0,1.5,2.6c1,1.1,1.7,1.6,2.1,1.3S14.23,43.79,14.23,41.69Zm8.3-19.1a7.52,7.52,0,0,0-1.6-1.5,2.53,2.53,0,0,0-1.4-.7,1,1,0,0,0-1,.9,41.85,41.85,0,0,0-.2,5.1q0,5.7.9,6.3c.6.5,1.6-.1,3.1-1.7a7,7,0,0,0,2.1-4.1A6.77,6.77,0,0,0,22.53,22.59Zm-1.9,21.7a3.94,3.94,0,0,0,1.3-3.7,2.25,2.25,0,0,0-2.4-2.2.8.8,0,0,0-.9.6,12.59,12.59,0,0,0-.2,2.6c0,2.2.1,3.4.4,3.6S19.73,45.09,20.64,44.29Z"/></g></g></svg>