<svg xmlns="http://www.w3.org/2000/svg" viewBox="0 0 37 53.3"><title>Juno</title><g id="Layer_2" data-name="Layer 2"><g id="Layer_1-2" data-name="Layer 1"><path id="Juno" d="M17.7.43A1.81,1.81,0,0,1,19.2,0a2.19,2.19,0,0,1,1.5.8,9.11,9.11,0,0,1,.3,3.1c0,1.7,0,3.3.1,4.7s.3,2.2.6,2.2q.75,0,4.2-3.6A15.2,15.2,0,0,1,29.8,4a1.86,1.86,0,0,1,2.3.4,1.61,1.61,0,0,1,.4,2.1,20.3,20.3,0,0,1-3.3,3.7c-2.4,2.4-3.6,3.7-3.6,4.2s1.8.7,5.5.8l5.5.2.4,3.9-5.3-.1c-3.5,0-5.5.1-6.1.4a.75.75,0,0,0-.1.5c0,.2.1.4.4.8s.7.8,1.2,1.4,1.1,1.2,1.9,1.9a41,41,0,0,1,3.2,3.6,1.4,1.4,0,0,1,.2,1.6,1.9,1.9,0,0,1-2.3,1.1,12.44,12.44,0,0,1-3.9-3c-2.2-2.2-3.6-3.3-4.1-3.3q-.45,0-.6,1.8c-.1,1.2-.1,3.6,0,7.1l.1,8.9,2.4.3a4.7,4.7,0,0,1,2.1.5,2.88,2.88,0,0,1,.4,1.8c0,1-.1,1.6-.4,1.8a5.64,5.64,0,0,1-2.4.5l-2.7.3.2,2.5a11,11,0,0,1-.1,2.1,1.64,1.64,0,0,1-1,1c-1,.6-1.8.6-2.2.2s-.8-1.4-.9-3l-.2-2.9-3-.3a7.21,7.21,0,0,1-2.7-.5,3,3,0,0,1-.4-1.9c0-1.1.1-1.7.4-1.9a6.22,6.22,0,0,1,2.7-.5l3-.3.2-5.8a73.49,73.49,0,0,0-.2-8.4c-.2-2.4-.5-3.6-1-3.6-.3,0-1.7,1.2-4.1,3.6-1.9,1.9-3.2,3-3.9,3.2s-1.5-.2-2.1-1.4a1.68,1.68,0,0,1,.1-1.8,41.9,41.9,0,0,1,3.3-3.7c2.5-2.7,3.5-4.2,3.1-4.5a32.33,32.33,0,0,0-6.6-.4L0,18.83v-3.6L6.1,15c4.1-.1,6.2-.3,6.2-.6s-1.2-1.8-3.7-4.5a31.12,31.12,0,0,1-3-3.6A1.31,1.31,0,0,1,6,4.83a2.14,2.14,0,0,1,2.4-.9c.8.3,2.1,1.5,3.9,3.4,2.2,2.5,3.6,3.6,4.1,3.3s.8-2,.8-5.1S17.5.73,17.7.43Z"/></g></g></svg>