<svg xmlns="http://www.w3.org/2000/svg" viewBox="0 0 40.47 50.41" id="Jupiter"><path d="M7.17.7a12.75,12.75,0,0,1,3.3-.7,16,16,0,0,1,3.6.7,12.92,12.92,0,0,1,6.8,3.9q2.25,2.7,3,8.1a23.94,23.94,0,0,1,.4,4.8,41.08,41.08,0,0,1-.6,4.8,24,24,0,0,1-2.3,6.7,29.83,29.83,0,0,1-4.5,5.9A17.88,17.88,0,0,0,15,37.2c-.3.5-.3.8,0,1,.5.3,2.5.5,5.9.4s5.3-.3,5.6-.6.4-6.4.5-18.2.3-18.1.8-18.9c.4-.5.7-.8.9-.8s.6.3,1.2.8A5.11,5.11,0,0,1,31,4.2c.1,1.8.2,7.1.3,15.8l.1,18.1,3.7.3c3.5.3,5.3,1,5.4,2.2a1.43,1.43,0,0,1-.4,1c-.5.6-2.1,1-4.8,1.1l-4,.2-.1,3.1a6.94,6.94,0,0,1-1,3.8q-.9,1.05-1.8.3a5.72,5.72,0,0,1-1.3-3.4,7.43,7.43,0,0,0-.3-1.6,2.5,2.5,0,0,0-.5-1.1,1.67,1.67,0,0,0-1.1-.8,17.77,17.77,0,0,0-2-.3,16.29,16.29,0,0,0-3.2-.1c-1.2,0-2.8.1-4.9.1q-12,.6-11.4-.9.15-.45,4.8-4.2a58.47,58.47,0,0,0,5.7-5.3c1.7-1.9,2.5-3.1,2.5-3.8a6,6,0,0,1,1.1-2.2,13.32,13.32,0,0,0,1.7-4.7,30.09,30.09,0,0,0,.8-6.1,13.68,13.68,0,0,0-2-7.2,9.55,9.55,0,0,0-4.9-4.3,6.79,6.79,0,0,0-5,.5,13.25,13.25,0,0,0-4.7,4.2c-1.5,2.2-2.4,3.3-2.9,3.3-.3,0-.6-.3-.7-1a7.24,7.24,0,0,1,.1-2.5A9.9,9.9,0,0,1,1,6.1a12.62,12.62,0,0,1,2.5-3.5A8.06,8.06,0,0,1,7.17.7Z"/></svg>