<svg xmlns="http://www.w3.org/2000/svg" viewBox="0 0 43.18 52.07"><title>Leo</title><g id="Layer_2" data-name="Layer 2"><g id="Layer_1-2" data-name="Layer 1"><path id="Leo" d="M18.8.67a9.39,9.39,0,0,1,4.8-.6A13.89,13.89,0,0,1,34.1,6a14.41,14.41,0,0,1,2.8,11.8,48.37,48.37,0,0,1-2.3,8.8,49.85,49.85,0,0,0-3.4,11.2c-.7,3.8-.6,6.6.1,8.4a2.3,2.3,0,0,0,1,1.4,6.79,6.79,0,0,0,2.6.3,8.36,8.36,0,0,0,2.6-.3,4.45,4.45,0,0,0,1.7-1.2,4,4,0,0,1,2-1.4,1.8,1.8,0,0,1,1.6.8c1,1.2,0,2.9-2.9,4.8a8.1,8.1,0,0,1-2.5,1.2,14.24,14.24,0,0,1-3.3.3,13.11,13.11,0,0,1-3.3-.3,7.07,7.07,0,0,1-2.1-1.3Q24.8,47,26,39.37A28.36,28.36,0,0,1,27.8,33a15,15,0,0,0,1.2-3.4,4.26,4.26,0,0,1,.8-2.3,18.34,18.34,0,0,0,1.9-5,47.75,47.75,0,0,0,1.4-6.4,11.91,11.91,0,0,0-.6-4.6,8.9,8.9,0,0,0-2.6-3.7,15.21,15.21,0,0,0-3.8-2.4,11.3,11.3,0,0,0-4.5-.9,10.07,10.07,0,0,0-4.5,1.2,11.24,11.24,0,0,0-3.7,3.8,9.63,9.63,0,0,0-1.7,4.8c0,.9.7,2.8,2,5.6a28.7,28.7,0,0,0,3.5,6,16.1,16.1,0,0,1,3.5,7.9,9.16,9.16,0,0,1-1.5,7.1,9.54,9.54,0,0,1-5.4,3.4,14.77,14.77,0,0,1-7.5-.2,8.53,8.53,0,0,1-5.2-4.5A10,10,0,0,1,.4,32a8.94,8.94,0,0,1,1.7-3.9A13.64,13.64,0,0,1,5.6,26a12.2,12.2,0,0,1,3.9-1.3c.6,0,.9-.4,1.1-1.1s0-1.3-.5-1.5-.8-1.7-1-4.4a35.91,35.91,0,0,1,0-6.6,11.29,11.29,0,0,1,2.3-5.2,9.81,9.81,0,0,1,4-3.5Zm-5.6,27.2c-3.9-.8-6.8-.1-8.5,2.2-1.4,1.9-2,3.5-1.9,4.9s1,3,2.7,4.8a4.09,4.09,0,0,0,1.8,1.3,9.1,9.1,0,0,0,2.7.3,8.06,8.06,0,0,0,3.8-.7A8.59,8.59,0,0,0,16.5,38c1.4-2.1,1.3-4.6-.1-7.3a6.2,6.2,0,0,0-1.3-1.9A2.84,2.84,0,0,0,13.2,27.87Z"/></g></g></svg>