<svg xmlns="http://www.w3.org/2000/svg" viewBox="0 0 49.03 42.8"><title>Libra</title><g id="Layer_2" data-name="Layer 2"><g id="Layer_1-2" data-name="Layer 1"><path id="Libra" d="M.8,37.9c.4-.2,8.3-.3,23.6-.3s23.3.2,24,.4c.5.2.7,1,.6,2.5l-.2,2.3-23.7-.2C9.3,42.5,1.2,42.2.7,41.8A2.54,2.54,0,0,1,0,39.7C0,38.8.3,38.1.8,37.9ZM19.9,1.3A13.17,13.17,0,0,1,25.2,0a12.28,12.28,0,0,1,5.1,1.4,17.16,17.16,0,0,1,8.6,9.8,11.19,11.19,0,0,1,1,4.9,12.77,12.77,0,0,1-1.7,5c-.6,1.3-.8,2.1-.5,2.3s2.4.6,6,.7l5,.1v4.2l-18.9.3V26.8a6.85,6.85,0,0,1,1.7-4.1,25.47,25.47,0,0,0,2.6-3.8A8.22,8.22,0,0,0,35.2,16a10.41,10.41,0,0,0-2.3-6.3,8.17,8.17,0,0,0-5-3.5,12.79,12.79,0,0,0-7.6.8,9.21,9.21,0,0,0-4.8,4.9,7.6,7.6,0,0,0-.5,4.7,15.93,15.93,0,0,0,2.7,5.7c1.6,2.4,2.4,4.1,2.3,4.9a1.17,1.17,0,0,1-.9,1,65.63,65.63,0,0,1-8.9.3H.9V24.3l5.4-.1a35.34,35.34,0,0,0,6.1-.4c.5-.2.3-1.1-.5-2.8a10.7,10.7,0,0,1-1.2-4.5,20.27,20.27,0,0,1,.4-5.4A12,12,0,0,1,14,5.7,12.64,12.64,0,0,1,19.9,1.3Z"/></g></g></svg>