<svg xmlns="http://www.w3.org/2000/svg" viewBox="0 0 41.3 42.39" id="Lot_of_Fortune"><path data-name="Lot of Fortune" d="M14.9.74a19.67,19.67,0,0,1,7.7-.6,22.88,22.88,0,0,1,7.7,2.3,29.41,29.41,0,0,1,5.1,4.2c2.3,2.3,3.5,3.6,3.5,4.2a4.29,4.29,0,0,0,.4,1.4,10.93,10.93,0,0,0,.8,1.5,8.69,8.69,0,0,1,.8,2.8,30.83,30.83,0,0,1,.4,4.8,27.73,27.73,0,0,1-.3,4.9,20.8,20.8,0,0,1-1.6,4.1,22.71,22.71,0,0,1-4.5,6.4,20,20,0,0,1-6.3,4,22,22,0,0,1-6.6,1.6,19.46,19.46,0,0,1-5.1-.2,29.78,29.78,0,0,1-4.1-1.2,11,11,0,0,0-2.5-.8c-.4,0-1-.5-1.9-1.2a34.36,34.36,0,0,1-2.7-2.7,21.46,21.46,0,0,1-4.4-7A23.34,23.34,0,0,1,0,20.93a21.26,21.26,0,0,1,1.2-7.6,20.67,20.67,0,0,1,4.2-6.4,19.91,19.91,0,0,1,4.4-4.1A16.64,16.64,0,0,1,14.9.74Zm2.4,20.4c0-.4-1.7-2.3-5-5.6l-5-5-1.5,2a12.4,12.4,0,0,0-2.4,5.2A16,16,0,0,0,3.2,23a21.3,21.3,0,0,0,1.1,4.2,16.15,16.15,0,0,0,1.4,2.7l1.5,1.8,5-5C15.6,23.43,17.3,21.53,17.3,21.13Zm8-16.4c-.6-.6-1.8-.9-3.5-.9a22.2,22.2,0,0,0-5.1.6,17,17,0,0,0-4.6,1.8c-1.3.7-2,1.5-2,2.3,0,.3,1.4,1.9,4.2,4.7a46.92,46.92,0,0,0,5.5,5q.45.3,5.7-4.8l5.3-5.2-1.4-1.4A4.11,4.11,0,0,0,27,5.34,3.16,3.16,0,0,1,25.3,4.74Zm5.2,29.9c0-.5-1.5-2.4-4.6-5.5s-4.7-4.7-5-4.7-2.1,1.7-5.3,5.1-4.9,5.2-4.9,5.5.8,1.1,2.5,2a14.67,14.67,0,0,0,7.1,1.5A16.1,16.1,0,0,0,27.6,37a19.28,19.28,0,0,0,2.1-1.3C30.2,35.24,30.5,34.93,30.5,34.63Zm6.7-16.7a20,20,0,0,0-2.2-5.3l-1.2-1.5-5,5c-3.3,3.4-4.9,5.2-4.9,5.6s1.5,2.2,4.6,5.5,4.7,5,5.1,5,.9-.8,1.8-2.5a28.1,28.1,0,0,0,2-4.9,13,13,0,0,0,.6-3.2A17.66,17.66,0,0,0,37.2,17.93Z"/></svg>