<svg xmlns="http://www.w3.org/2000/svg" viewBox="0 0 47.35 49.31"><title>Mars</title><g id="Layer_2" data-name="Layer 2"><g id="Layer_1-2" data-name="Layer 1"><path id="Mars" d="M44.73.5a1.46,1.46,0,0,1,1.6-.4,2,2,0,0,1,1,1.7,8.52,8.52,0,0,1-1,3.8,9.92,9.92,0,0,0-1.2,3.2c0,.8-.2,1.3-.5,1.4s-.8,0-1.4-.6-1-.7-1.3-.6a10.28,10.28,0,0,0-2.3,1.9c-3.1,3-4.3,5.3-3.6,6.7a23.68,23.68,0,0,1,2.3,5.6,28.44,28.44,0,0,1,.5,6.5,20.91,20.91,0,0,1-1.1,7.7,19.12,19.12,0,0,1-4.6,6,21,21,0,0,1-11.8,5.8c-2.5.4-5.6-.3-9.3-2s-6.4-3.7-8-6A21.3,21.3,0,0,1,.13,30.9a18.13,18.13,0,0,1,1.5-10c4-7.8,10.1-11.7,18.1-11.7a26.39,26.39,0,0,1,6.2.9c2.4.6,3.7,1.1,4,1.6s.9.6,1.9.6,2.3-.9,4.1-2.7,2.7-3.1,2.5-3.8c-.4-1.2-.5-1.9-.3-2.3S39.33,2.6,41,2A11.78,11.78,0,0,0,44.73.5ZM32.83,20.6a14.87,14.87,0,0,0-2.3-2.8,18.7,18.7,0,0,0-3.6-2.7,10,10,0,0,0-4.7-1.5,15.8,15.8,0,0,0-5.6.5c-2,.6-3.5,1-4.3,1.2-1.9.5-3.8,2.3-5.7,5.3a15.47,15.47,0,0,0-2.8,8.2,18.76,18.76,0,0,0,2,7.2c1.3,2.9,2.7,4.9,4.1,5.9a15,15,0,0,0,11.2,3.4,14.64,14.64,0,0,0,6.4-1.9,17,17,0,0,0,4.9-4.8,9.2,9.2,0,0,0,1.9-3.4,30.28,30.28,0,0,0,.3-5.6,31.22,31.22,0,0,0-.3-5.5A13.45,13.45,0,0,0,32.83,20.6Z"/></g></g></svg>