<svg xmlns="http://www.w3.org/2000/svg" viewBox="0 0 28.7 50.24" id="Mercury"><path d="M22,1.92A10.09,10.09,0,0,1,24.2,0c.3-.1.8.2,1.5.8C27.1,2,27,3.42,25.6,5c-.7.7-1,1.1-1,1.4a3.33,3.33,0,0,0,.8,1.3,12.19,12.19,0,0,1,2.7,4.5,23.38,23.38,0,0,1,.6,6.1,19.84,19.84,0,0,1-1.3,8.1,13.39,13.39,0,0,1-3.3,4.4,9,9,0,0,1-4.3,2.4,4.23,4.23,0,0,0-2.6,1.2,3.67,3.67,0,0,0-.5,2.7l.2,1.9,4.8.3a16.14,16.14,0,0,1,4.1.5,1.46,1.46,0,0,1,.9,1.3,1.8,1.8,0,0,1-.9,2.2,15.53,15.53,0,0,1-4.9.9l-4.6.3-.1,1.9a5.79,5.79,0,0,1-.6,3.1,1.42,1.42,0,0,1-1.6.7,1.46,1.46,0,0,1-1.1-.6,4.31,4.31,0,0,1-.3-2c0-1.7-.1-2.7-.4-3s-1.9-.5-4.8-.5L2.9,44v-4.2l9-.6v-2.4c0-1.1-.1-1.8-.4-2.1a5.79,5.79,0,0,0-2-1.2,14.31,14.31,0,0,1-4.3-2.4A16.67,16.67,0,0,1,2,27.22a11.85,11.85,0,0,1-1.7-3.5,28.49,28.49,0,0,1-.3-5.3,28.49,28.49,0,0,1,.3-5.3A12.89,12.89,0,0,1,2,9.82l1.9-2.9L2.9,5c-1.1-2-1.1-3.3-.2-3.9S5,.92,6.8,2.42a9.11,9.11,0,0,0,2.7,1.7,30.77,30.77,0,0,0,4.9.1,29.12,29.12,0,0,0,4.9-.4A7.07,7.07,0,0,0,22,1.92Zm-3.5,6.5a8.1,8.1,0,0,0-5.3-.6,14.08,14.08,0,0,0-4.9,2,11.23,11.23,0,0,0-3.6,3.9A11,11,0,0,0,3.3,19a10,10,0,0,0,1.9,6,13.31,13.31,0,0,0,5.2,4.4,8.87,8.87,0,0,0,6.8.5,10.83,10.83,0,0,0,5.9-4.2A6.6,6.6,0,0,0,24.4,23a22,22,0,0,0,.3-4.5,19.44,19.44,0,0,0-.3-4.5,8.63,8.63,0,0,0-1.8-2.6A13.38,13.38,0,0,0,18.5,8.42Z"/></svg>