<svg xmlns="http://www.w3.org/2000/svg" viewBox="0 0 56.3 40.41"><title>Midheaven</title><g id="Layer_2" data-name="Layer 2"><g id="Layer_1-2" data-name="Layer 1"><path id="Midheaven" d="M.3,2.41A2,2,0,0,1,.9,1,3.82,3.82,0,0,1,2.8.71,4.39,4.39,0,0,1,4.7,1a1.53,1.53,0,0,1,.7,1.1C5.7,3.31,6.6,5.91,8,10s2.4,6.9,2.9,8.5,1.1,3.4,1.9,5.5a32.74,32.74,0,0,1,1.4,4.5c.4,2,1,2.4,1.7,1.3a48.42,48.42,0,0,0,2.6-7.1c0-.3,1.1-3.3,3.1-9.2s3.1-9.1,3.2-9.9c.4-2.1,1.7-3,3.7-2.7l1.7.2.1,19c.1,8.7.1,14.1,0,16.1s-.4,3.2-.8,3.3c-.7.3-1.3,0-1.9-.7-.3-.4-.5-1.7-.6-3.8s-.2-4.5-.1-7.2.1-5.4.1-8v-6.6c-.1-1.8-.2-2.6-.4-2.5a.76.76,0,0,0-.4.2,5.93,5.93,0,0,0-.4.6c-.1.3-.3.6-.4.9s-.3.8-.5,1.5a17.24,17.24,0,0,1-.7,2.1c-.2.7-.6,1.6-1,2.8s-.8,2.4-1.3,3.6-.8,2.4-1.3,4.1a25.58,25.58,0,0,1-1.4,4,6.78,6.78,0,0,0-.9,2.8,10.06,10.06,0,0,1-1.3,3.9c-.8,1.8-1.5,2.6-1.9,2.6s-1.1-1.3-2.2-3.9a84.86,84.86,0,0,1-3.1-9q-1.35-4.35-3.6-10.8c-1.5-4.2-2.4-6.4-2.6-6.4s-.5,5-.5,15S2.9,39.81,2.6,40a1.93,1.93,0,0,1-1.5,0c-.4-.1-.6-1.3-.8-3.4s-.2-7-.3-14.8C.2,10,.2,3.51.3,2.41ZM46.1.31a18.83,18.83,0,0,1,8.4.4,1.55,1.55,0,0,1,1.2.8,5.61,5.61,0,0,1,.5,1.9l.1,2.3-1.9-.4c-3.3-.7-5.7-.9-7.3-.6a9.56,9.56,0,0,0-4.8,2.6,11.41,11.41,0,0,0-3.1,5,29.62,29.62,0,0,0-.9,8.4,37.74,37.74,0,0,0,.3,6,12.72,12.72,0,0,0,1.3,3.5,11.18,11.18,0,0,0,6,5.4,9,9,0,0,0,7.5-.6,3.9,3.9,0,0,1,2.3-.8c.4.2.5.9.5,2.1s-.8,2.1-2.3,2.9a12.76,12.76,0,0,1-5.8,1.2,12.1,12.1,0,0,1-10.3-5.3c-2.5-3.6-3.8-8.4-3.8-14.4a26,26,0,0,1,3.3-13.5C39.6,3.41,42.5,1.11,46.1.31Z"/></g></g></svg>