<svg xmlns="http://www.w3.org/2000/svg" viewBox="0 0 34.39 48.84"><title>Moon</title><g id="Layer_2" data-name="Layer 2"><g id="Layer_1-2" data-name="Layer 1"><path id="Moon" d="M2.35,1c2-1,5.1-1.3,9.3-.8a25.07,25.07,0,0,1,10.2,3.1,32.73,32.73,0,0,1,5.8,5.1c2.6,2.7,4,4.3,4,4.9a7.14,7.14,0,0,0,1.4,2.4,6.6,6.6,0,0,1,1.2,2.7,49.47,49.47,0,0,1,.1,6.1,42.51,42.51,0,0,1-.3,6.3,16.11,16.11,0,0,1-1.3,3.9,27.82,27.82,0,0,1-5,7.1,22.13,22.13,0,0,1-6.7,5,18.9,18.9,0,0,1-4.5,1.7,46.89,46.89,0,0,1-6.9.3c-4.8,0-7.5-.2-8-.7-.2-.2-.4-.3-.4-.5s0-.2.2-.3L2,47a6.32,6.32,0,0,0,.9-.4c.4-.2.7-.4,1.1-.6a20.14,20.14,0,0,1,2.1-1.1,17.77,17.77,0,0,0,4.4-3.4,29.46,29.46,0,0,0,4.1-4.6,20,20,0,0,0,2.8-7.5,20,20,0,0,0,.1-7.3c-.4-2.1-.8-4-1.2-5.5a10.12,10.12,0,0,0-1.3-2.9,7.61,7.61,0,0,1-1.2-1.9c-.4-1.2-2.2-2.9-5.3-5a20.4,20.4,0,0,0-7.4-3.5c-1.4-.2-1.5-.7-.4-1.6C1.25,1.54,1.75,1.34,2.35,1Zm17.1,5.6a10.62,10.62,0,0,0-2.5-1.1,4.27,4.27,0,0,0-1.9-.1.8.8,0,0,0-.7.9c0,.5.3.9,1,1.3a2.88,2.88,0,0,1,1.4,1.5,21,21,0,0,0,2.8,4.8c.6.7,1.1,2.3,1.7,4.7A26,26,0,0,1,22,25a28.55,28.55,0,0,1-1.7,9.6,18.36,18.36,0,0,1-4.3,7.3c-1.2,1.2-1.7,1.9-1.7,2.4,0,.3.3.5.8.6a4.85,4.85,0,0,0,2-.2,3.86,3.86,0,0,0,1.9-1,4.35,4.35,0,0,1,2.2-1.2q.75,0,3.3-2.7a29,29,0,0,0,3.5-4.2,21.86,21.86,0,0,0,2.4-10.4,23,23,0,0,0-2.5-10.6,15.46,15.46,0,0,0-3.6-4.2A21,21,0,0,0,19.45,6.64Z"/></g></g></svg>