<svg xmlns="http://www.w3.org/2000/svg" viewBox="0 0 41.22 52.6"><title>Neptune</title><g id="Layer_2" data-name="Layer 2"><g id="Layer_1-2" data-name="Layer 1"><path id="Neptune" d="M2.6,3.7C4.2,1.2,5.2,0,5.6,0c.2,0,.4.2.6.5s.6,1,1,1.9S8.2,4.2,8.7,5A7.19,7.19,0,0,1,9.9,7.6c0,.5-.5.7-1.3.7s-1.2.9-1.5,2.8a30.16,30.16,0,0,0,0,7.4,21.61,21.61,0,0,0,1,5.4,9.17,9.17,0,0,0,2.6,3.2,17.51,17.51,0,0,0,4.4,2.3c2,.8,3.2,1,3.6.8s.6-2.6.6-7.2c0-4.1-.2-6.4-.5-6.8a1.56,1.56,0,0,0-1-.6L16.3,15l1.5-2.4a10.61,10.61,0,0,0,1.5-2.9c0-.4.3-.8.9-1.3a1.27,1.27,0,0,1,1.8,0,14.12,14.12,0,0,1,2.4,3.5l1.5,2.8-1.2.8a2.06,2.06,0,0,0-1,1.8c-.1.8-.2,2.9-.2,6.2,0,4.8.1,7.1.3,7.1a9.71,9.71,0,0,0,3.9-1.5A23.88,23.88,0,0,0,32.1,26l2.8-2.7V15.9c0-3.5-.1-5.6-.2-6.4a1.44,1.44,0,0,0-1-1.4,4.05,4.05,0,0,1-.9-.5,1.08,1.08,0,0,1-.3-.7c0-.6.6-1.8,1.9-3.6S36.5.5,36.8.5s.5.2.8.7.7,1.2,1.3,2.1a17.19,17.19,0,0,0,1.4,2.2c.7,1,1,1.6.9,1.9s-.5.5-1.2.6a1.39,1.39,0,0,0-1.2,1c-.1.7-.2,3-.2,7.1a48.22,48.22,0,0,1-.3,7.2,9.75,9.75,0,0,1-1.6,3.3,16.38,16.38,0,0,1-4.4,4.3,15.79,15.79,0,0,1-5.7,2.4l-3.1.6v7.8l4.5.4c3,.2,4.7.6,5,1.3.9,1.4.2,2.2-2.2,2.4H28.6c-2.2-.1-3.6.1-4.3.5s-1,1.5-1,3.1a4.6,4.6,0,0,1-.3,2,2,2,0,0,1-1.1.9c-1.1.4-1.8.4-2.2,0s-.6-1.5-.7-3.1l-.2-3.1-4.5.2a24.6,24.6,0,0,1-4,0A1.79,1.79,0,0,1,9,45.2c-.6-1.1-.5-1.8.3-2.3s2.4-.7,5-.8l4.6-.2.2-3.5c.1-2,0-3.3-.4-3.7s-1.6-.8-3.7-1.1A13.84,13.84,0,0,1,9,31a13.87,13.87,0,0,1-4.5-4.6,10.24,10.24,0,0,1-1-3.4,50.08,50.08,0,0,1-.3-6.8L3.1,8.4,0,7.8Z"/></g></g></svg>