<svg xmlns="http://www.w3.org/2000/svg" viewBox="0 0 45.4 41.4" id="Opposition"><path d="M29.2,2c4-2.6,7.8-2.7,11.5-.1a11.12,11.12,0,0,1,3.8,3.7,12,12,0,0,1,.9,5.3,11.84,11.84,0,0,1-.9,5.2A11.83,11.83,0,0,1,40.6,20a8.29,8.29,0,0,1-4.4,1.5,12.14,12.14,0,0,1-3.9-.1,3.92,3.92,0,0,1-1.9-.7,2.91,2.91,0,0,0-2.5-.8,13,13,0,0,0-3.5,2.3l-3,2.4V35.4l-3.2,3A18.59,18.59,0,0,1,15,41a10,10,0,0,1-3.7.4,16,16,0,0,1-3.6-.3A9.46,9.46,0,0,1,5,39.6a14,14,0,0,1-3.4-4A8.78,8.78,0,0,1,0,31.2a10.26,10.26,0,0,1,2.4-6.5,12.89,12.89,0,0,1,5.9-4.2,8,8,0,0,1,2.3-.5,6.62,6.62,0,0,1,1.5.1c.4.1,1.1.4,2.2.8s2.2.8,3.2,1.2c.7.2,2.1-.6,4.2-2.6s3.2-3.3,3-4.1q-.9-5.7,0-8.4A12.85,12.85,0,0,1,29.2,2ZM16,35.6a7.3,7.3,0,0,0,2.1-4.5,6.48,6.48,0,0,0-1.6-4.9,6.72,6.72,0,0,0-5.4-2.1,5.88,5.88,0,0,0-2.6.4,7.73,7.73,0,0,0-2.1,1.8,6.32,6.32,0,0,0-2,4.2,7.3,7.3,0,0,0,1.2,4.1,6.78,6.78,0,0,0,3,2.6,6.92,6.92,0,0,0,3.8.4A6,6,0,0,0,16,35.6ZM39.7,6.4a6.59,6.59,0,0,0-2-1.7A7.6,7.6,0,0,0,35,4.3a9.1,9.1,0,0,0-2.7.3,4.76,4.76,0,0,0-1.9,1.5,6.79,6.79,0,0,0-2.1,5.3,6.67,6.67,0,0,0,2.8,5.1,6.52,6.52,0,0,0,4.4,1c2,0,3.3-.4,3.9-1,1.7-2,2.6-3.7,2.7-5.2A8.27,8.27,0,0,0,39.7,6.4Z"/></svg>