<svg xmlns="http://www.w3.org/2000/svg" viewBox="0 0 35.4 52.22" id="Pallas"><path d="M0,17.9c0-.5,2.9-3.6,8.8-9.3S17.7,0,18,0s3.4,2.9,9,8.7,8.4,8.9,8.4,9.3a15.42,15.42,0,0,1-2.3,2.9c-1.5,1.7-3.4,3.6-5.5,5.8l-7.8,7.9v6.8l3.2.2a5.83,5.83,0,0,1,2.6.4,1.47,1.47,0,0,1,.7,1.2c.1,1,0,1.6-.5,2a7.81,7.81,0,0,1-3.1,1c-1.3.2-2.1.4-2.3.7a4.4,4.4,0,0,0-.6,2.4,6,6,0,0,1-.5,2.3,2,2,0,0,1-1.4.6,2.06,2.06,0,0,1-2.1-.8,4.5,4.5,0,0,1-.6-3,2.37,2.37,0,0,0-.3-1.5,4.91,4.91,0,0,0-2.1-.8,6.58,6.58,0,0,1-3.1-1.2A1.71,1.71,0,0,1,9.1,43a1.2,1.2,0,0,1,.8-.9,6.44,6.44,0,0,1,2.2-.5l2.7-.3.4-7.9L7.7,26.1C2.6,21.1,0,18.4,0,17.9Zm30.1-.1q0-.75-5.7-6.3C20.6,7.8,18.4,6,17.7,6S15,7.7,11.4,11.1s-5.5,5.6-5.7,6.4c-.2.5.7,1.8,2.6,3.8a65.51,65.51,0,0,0,6,5.8,31.71,31.71,0,0,0,3.4,2.8c.4.1,2.6-1.8,6.5-5.6S30.1,18.3,30.1,17.8Z"/></svg>