<svg xmlns="http://www.w3.org/2000/svg" viewBox="0 0 34.03 44.22" id="Pisces"><path d="M29.7,1a2.39,2.39,0,0,1,1.8-1,1.83,1.83,0,0,1,1.7.6c.5.5.2,1.4-.9,2.9a42.86,42.86,0,0,0-4.2,6.8,19.65,19.65,0,0,0-2.1,6.2,6.24,6.24,0,0,0-.1,2.3,1.66,1.66,0,0,0,1.1.8,6.89,6.89,0,0,0,2.8.3,11.33,11.33,0,0,1,2.6-.1c.9.1,1.3.3,1.5.8a1.55,1.55,0,0,1-.6,2,8.09,8.09,0,0,1-3.8.9l-3.5.2.1,3.9a17,17,0,0,0,1,5.7,26.61,26.61,0,0,0,3.2,5.8c2.5,3.7,2.6,5.3.2,4.9-1.8-.3-3.6-2.3-5.4-5.9-2.4-4.9-3.7-8.7-3.7-11.4,0-1.6-.4-2.7-1.1-3.1s-2.2-.5-4.3-.3a10.61,10.61,0,0,0-1.8.3,1.56,1.56,0,0,0-.8.6,2.1,2.1,0,0,0-.4,1.1,11.61,11.61,0,0,1-.5,2.2,26.68,26.68,0,0,1-1.1,3.4l-1.3,3.6c-.1.3-.7,1.3-1.7,3s-1.7,2.8-2.1,3.6a6.16,6.16,0,0,1-1.9,2.5,2.9,2.9,0,0,1-2.5.5c-.8-.2-1.3-.5-1.5-1s0-.9.5-1.3a10.62,10.62,0,0,0,2.4-3.1,34.65,34.65,0,0,0,3.3-6.4A13.9,13.9,0,0,0,8,26l-.2-2.2-3.9-.3A11,11,0,0,1,.6,23c-.4-.2-.6-.6-.6-1.3s.2-1.1.6-1.3a16,16,0,0,1,3.3-.5,11,11,0,0,0,3.3-.5A1.77,1.77,0,0,0,8,18a9.77,9.77,0,0,0-.8-3.8,16.52,16.52,0,0,1-.9-3q0-.6-3-5.1c-2-3-2.9-4.6-2.7-4.9s.8-.5,1.7-.5a3.34,3.34,0,0,1,2.1.8,18,18,0,0,1,3.9,5.3,47,47,0,0,1,3.5,8.3l1.4,4.5h7.6l.4-2.4a27.8,27.8,0,0,1,3-7.8A47,47,0,0,1,29.7,1Z"/></svg>