<svg xmlns="http://www.w3.org/2000/svg" viewBox="0 0 32.41 48.5"><title>Pluto</title><g id="Layer_2" data-name="Layer 2"><g id="Layer_1-2" data-name="Layer 1"><path id="Pluto" d="M1.6.4C2.8,0,6.7-.1,13.1.1s10.3.6,11.6,1c3,1.1,5.1,2.4,6.2,4.1s1.6,4.3,1.5,7.9a25.36,25.36,0,0,1-.3,4.6,8.25,8.25,0,0,1-1,2.6,13.13,13.13,0,0,1-6.7,5.3c-2.9,1-7.2,1.5-13,1.6H4.2V44.6H31.8l.4,3.9L0,48.2V.8ZM24.2,5.1a10.92,10.92,0,0,0-3.6-1.2c-1.3-.2-3.8-.3-7.5-.4q-5.25-.15-6.9,0c-1.2.1-1.8.3-1.9.6-.2.6-.3,3.8-.1,9.8l.1,9h18L25,21.1a8.08,8.08,0,0,0,2.9-3,14,14,0,0,0,.7-5,11,11,0,0,0-.9-4.9A10.78,10.78,0,0,0,24.2,5.1Z"/></g></g></svg>