<svg xmlns="http://www.w3.org/2000/svg" viewBox="0 0 29.34 50.13"><title>Quintile</title><g id="Layer_2" data-name="Layer 2"><g id="Layer_1-2" data-name="Layer 1"><path id="Quintile" d="M.34,16.6C1.74,5.7,6.64.1,14.84,0a12.2,12.2,0,0,1,7.7,2.4q3.15,2.4,5.4,7.8a17.14,17.14,0,0,1,1.2,4.1c.1,1.3.2,3.7.2,7.3a55.61,55.61,0,0,1-.3,7.5,17.17,17.17,0,0,1-1.6,4.4,19.89,19.89,0,0,1-3.2,5.3l-1.3,1.4,1.2,2.2a7.41,7.41,0,0,0,1.7,2.1,8.15,8.15,0,0,0,1.7,1,2,2,0,0,1,1.2.8,2.65,2.65,0,0,1,.5,1.7c0,1.1-.2,1.8-.6,2a3.22,3.22,0,0,1-2.3-.2,10.32,10.32,0,0,1-3.7-3c-1.6-1.7-2.4-2.9-2.4-3.5,0-.4-1.3-.6-4-.6a21.73,21.73,0,0,1-6.4-.8,11.72,11.72,0,0,1-4.4-2.8,16.08,16.08,0,0,1-3-4.5,43.94,43.94,0,0,1-1.9-7.5A39.15,39.15,0,0,1,0,22,27.56,27.56,0,0,1,.34,16.6ZM18.24,5.1a7.46,7.46,0,0,0-3.7-.8,6.91,6.91,0,0,0-3.6,1,10.79,10.79,0,0,0-4.6,5.4Q5.14,14,5.14,21.5a50.34,50.34,0,0,0,.3,6.7,13.64,13.64,0,0,0,1,3.6,10.69,10.69,0,0,0,3.9,4.9,7.36,7.36,0,0,0,5.2,1.5c1.4-.1,2.1-.6,2.1-1.3s-.8-1.8-2.2-3.4c-1.6-1.6-2.4-3-2.3-4s.4-1.7.9-1.8,1.5.5,3.2,2.1a10.23,10.23,0,0,1,3,3.6c.6,1.5,1.2,1.6,2,.4.3-.4.6-1.1,1.1-1.9a13.41,13.41,0,0,0,1.1-3.6,45.14,45.14,0,0,0,.3-6.4c0-4.9-.4-8.6-1.4-11.2A11.18,11.18,0,0,0,18.24,5.1Z"/></g></g></svg>