<svg xmlns="http://www.w3.org/2000/svg" viewBox="0 0 37.54 19.67"><title>Quincunx</title><g id="Layer_2" data-name="Layer 2"><g id="Layer_1-2" data-name="Layer 1"><path id="Quincunx" d="M.24.87c.1-.4,1.3-.7,3.5-.8S11,0,19,.08l18.5.1v3l-7.1.1c-2.5.1-4.4.2-5.4.3s-1.6.3-1.6.6,1.7,2.5,4.8,6.4,4.8,5.9,4.8,6-.5.8-1.4,1.7l-1.4,1.3-3.8-5a73.8,73.8,0,0,0-5.7-6.9l-1.9-1.9-3.2,4.4c-.9,1.1-1.9,2.5-3.1,4.3s-2.1,3-2.8,3.9-1,1.3-1.2,1.3-.8-.4-1.5-1.1S6,17.37,6,17s.6-1.3,1.7-2.7q2.25-2.7,4.5-6c1.5-2.2,2.2-3.5,2.2-4,0-.3-.5-.5-1.4-.6a51.39,51.39,0,0,0-5.2-.2c-1.7,0-3.1,0-4.2-.1A11.82,11.82,0,0,1,1.14,3c-.6-.2-1-.5-1.1-.9A1.8,1.8,0,0,1,.24.87Z"/></g></g></svg>