<svg xmlns="http://www.w3.org/2000/svg" viewBox="0 0 28.77 45.7" id="Retrograde"><path d="M23.67,10.3a10.08,10.08,0,0,1-1.5,5.5,9.39,9.39,0,0,1-3.6,3.3,24.06,24.06,0,0,1-4.2,1.6q-2.1.6-3.6.9t-1.5.6c0,.3,1.1,1.7,3.4,4.3a46.64,46.64,0,0,0,4.9,5l1.5,1.2L22,29.5a16.21,16.21,0,0,1,2.6-2.4,3.7,3.7,0,0,1,2.1-.6c1.2,0,1.9.2,2.1.5s-1,1.8-3.3,4.7A47.3,47.3,0,0,0,22,36.2a34.31,34.31,0,0,0,3.2,4.2q3.15,3.9,3,4.2c-.2.3-.9.4-2.1.4a4.2,4.2,0,0,1-2.1-.6,20.17,20.17,0,0,1-2.6-2.3l-2.8-3-3,3.3a16.39,16.39,0,0,1-2.7,2.7,4,4,0,0,1-2.2.6c-1.3,0-2-.1-2-.4s1.2-1.8,3.7-4.8l3.7-4.5-5.3-6.1q-5.4-6.15-6-6.3c-.2,0-.4.5-.6,1.7S4,28.8,3.87,32l-.1,8.6H.17L.07,21.1C0,8.1,0,1.3.17.8s3-.8,8.4-.8a53,53,0,0,1,7.3.3,8.66,8.66,0,0,1,3.2,1.3A9.78,9.78,0,0,1,23.67,10.3Zm-9.4-6.2a24.87,24.87,0,0,0-5-.5,13.72,13.72,0,0,0-4.1.5,1.71,1.71,0,0,0-.9.6A4.39,4.39,0,0,0,4,6.5a28.85,28.85,0,0,0,0,4.2l.2,6.2h5.2a23.71,23.71,0,0,0,4.7-.3A8.38,8.38,0,0,0,17,15.2a5.68,5.68,0,0,0,2.1-1.9,8.77,8.77,0,0,0,.3-3,7,7,0,0,0-1.2-4.4A10.94,10.94,0,0,0,14.27,4.1Z"/></svg>