<svg xmlns="http://www.w3.org/2000/svg" viewBox="0 0 41.35 43.57"><title>Sagittarius</title><g id="Layer_2" data-name="Layer 2"><g id="Layer_1-2" data-name="Layer 1"><path id="Sagittarius" d="M23.66,39.07a35.09,35.09,0,0,1-4.3-3.6c-2.7-2.4-4.2-3.6-4.6-3.6s-2.7,2-6.6,6.1c-3.6,3.7-5.9,5.6-6.8,5.6-.5,0-1-.4-1.3-1.3-.2-.7.1-1.7,1-3.1A38.61,38.61,0,0,1,6,33.67c3.1-3,4.6-4.7,4.6-5.2s-1.3-1.9-4-4.4a44.18,44.18,0,0,1-3.5-3.6,2.5,2.5,0,0,1-.1-2.1c.4-1,1.1-1.2,2.2-.8a13.2,13.2,0,0,1,4.1,3.1,14.56,14.56,0,0,0,2.7,2.4,4.64,4.64,0,0,0,1.8.9c.8,0,3.7-2.7,8.8-8s7.7-8.4,7.7-9.3c0-.3-.6-.6-1.8-.8s-3.7-.5-7.5-1a13.89,13.89,0,0,1-3.5-.6c-.4-.2-.6-.6-.5-1.3a4.07,4.07,0,0,1,.8-2.2A1.85,1.85,0,0,1,19,.07a4.27,4.27,0,0,1,1.9.1c.8.1,1.7.3,2.7.5s2.3.5,4.1.8,3.7.6,5.7.8l4.3.4,1.2,4.5a95,95,0,0,1,1.9,9.8c.6,3.6.7,5.6.5,5.9a3.11,3.11,0,0,1-1.8.6,1.16,1.16,0,0,1-1.3-.5,14,14,0,0,1-1.2-3.5,29.73,29.73,0,0,1-1.1-6q0-2.7-.9-2.7c-.7,0-2.9,1.9-6.6,5.6-.4.5-1,1-1.6,1.7-5.2,5.4-7.9,8.4-8.1,9.2s1,2.5,3.7,5.2a25.65,25.65,0,0,1,3.3,3.7c.3.5.1,1-.4,1.6C24.46,38.67,24,39.07,23.66,39.07Z"/></g></g></svg>