<svg xmlns="http://www.w3.org/2000/svg" viewBox="0 0 32.39 53.75" id="Saturn"><path d="M4.54.71c0-.2.3-.4.8-.6a2,2,0,0,1,1.5.1,2.52,2.52,0,0,1,.9,2c.1,1.2.4,1.9.9,2.2a17.28,17.28,0,0,0,4.6.9,13.61,13.61,0,0,1,3.3.6c.4.2.5.6.5,1.3s-.2,1.2-.6,1.3a20,20,0,0,1-3.9.5L8,9.31l-.1,2.6c-.1,1.2,0,2.1.4,2.4s.9.2,1.6-.4a13,13,0,0,1,3.3-1.2,16.08,16.08,0,0,1,6.6-.1,13,13,0,0,1,5.8,2.2,12.76,12.76,0,0,1,3.6,4.9,8.71,8.71,0,0,1,1.1,5.3,25.16,25.16,0,0,1-2.4,6.4c-1.4,2.9-2.3,4.6-2.9,5.1a2.09,2.09,0,0,0-1,1.7,4.24,4.24,0,0,1-.9,2.2,9.16,9.16,0,0,0-1.4,4.4,7.29,7.29,0,0,0,.6,4,3.5,3.5,0,0,0,3,1.6,5.77,5.77,0,0,0,3.7-1.3,7.05,7.05,0,0,1,1.5-.9,1.1,1.1,0,0,1,1,.4c1.3,1.1,1.1,2.2-.6,3.4a10.09,10.09,0,0,1-6.7,1.7,11.63,11.63,0,0,1-1.8-.4,7,7,0,0,1-4.8-5.3q-.9-3.9,1.8-8.7c4.7-8.3,7-13.5,7-15.6a6.83,6.83,0,0,0-.8-3.4,10.39,10.39,0,0,0-3-2.9,9.46,9.46,0,0,0-2.7-1.5,14.43,14.43,0,0,0-3.5-.3,14.24,14.24,0,0,0-3.3.3,6.7,6.7,0,0,0-2.1,1,7.89,7.89,0,0,0-2.6,3.6c-.4,1.4-.6,4.4-.8,9.2l-.3,9h-3l-.6-29.4L1.94,9a2.73,2.73,0,0,1-1.4-.5A1.73,1.73,0,0,1,0,7.21a2.66,2.66,0,0,1,.1-1.4,2.37,2.37,0,0,1,1.6-.4A3.69,3.69,0,0,0,3.44,5a2.8,2.8,0,0,0,.5-1.5A28.42,28.42,0,0,1,4.54.71Z"/></svg>