<svg xmlns="http://www.w3.org/2000/svg" viewBox="0 0 50.29 55.2"><title>Scorpio</title><g id="Layer_2" data-name="Layer 2"><g id="Layer_1-2" data-name="Layer 1"><path id="Scorpio" d="M.19.5c.3-.4.9-.5,2-.4a2.36,2.36,0,0,1,1.6.9,16.29,16.29,0,0,1,1.7,3l1.7,3.6,1.2-1.4a5.66,5.66,0,0,0,1.2-2.1A6.14,6.14,0,0,1,11,1.7,6,6,0,0,1,12.59.3a4.81,4.81,0,0,1,2.2-.1,3.68,3.68,0,0,1,2.6,1,17.21,17.21,0,0,1,1.9,4.2c.5,1.2.9,1.8,1.3,1.8s.9-.8,1.5-2.2a13.88,13.88,0,0,1,2.4-3.8A4,4,0,0,1,27.29,0a3.74,3.74,0,0,1,2.6.9,12.34,12.34,0,0,1,2.3,3.6,12.24,12.24,0,0,1,.9,4.5c.1,2,.2,6.3.2,13.2,0,12.4.2,19.3.4,20.7a5.53,5.53,0,0,0,1.4,2.6l.4.4a10.86,10.86,0,0,0,2.2,1.7,6.56,6.56,0,0,0,2.9.4c2,0,3.1-.2,3.2-.6a1.49,1.49,0,0,1,.1-.6,3.54,3.54,0,0,1,.1-.6.76.76,0,0,1,.1-.4c.1-.2.1-.3.2-.3a.44.44,0,0,1,.3-.1h.5l.6.3a9.22,9.22,0,0,1,.8.5,7.29,7.29,0,0,1,1.1.9q2.7,2.25,2.7,3c0,.4-.8,1.3-2.3,2.8s-2.5,2.3-2.8,2.3-.5-.5-.9-1.4a1.89,1.89,0,0,0-1.1-1.2,14.1,14.1,0,0,0-3.3-.4,11.05,11.05,0,0,1-5.8-1.7,11.26,11.26,0,0,1-3.7-4.7,15.31,15.31,0,0,1-1.2-4.8c-.1-1.8-.2-6.6-.3-14.3-.1-12.7-.6-19.7-1.7-21.2-.6-.8-1.4-.5-2.6.9-1.6,2-2.9,5.3-3.9,9.8-.4,1.8-.5,6.8-.4,15l.1,12.3h-4.1l-.4-16.6c-.2-13.1-.9-20.3-2-21.6-.7-.8-1.6-.2-2.8,1.7A20.57,20.57,0,0,0,8,15c-.5,3-.7,8-.7,15.2V43.4H5.49c-.9,0-1.4-.2-1.6-.5a9.9,9.9,0,0,1-.6-2.8,111.2,111.2,0,0,1-.4-12c0-5.7-.1-10.9-.4-15.7S1.39,4.2.19,2A1.59,1.59,0,0,1,.19.5Z"/></g></g></svg>