<svg xmlns="http://www.w3.org/2000/svg" viewBox="0 0 34.42 36.36"><title>Semi-square</title><g id="Layer_2" data-name="Layer 2"><g id="Layer_1-2" data-name="Layer 1"><path id="Semi-square" d="M19.06,2.12c.8-1.3,1.3-2,1.6-2.1s.9.2,1.8.9L23.86,2l-3.3,6c-.9,1.5-1.7,3-2.5,4.4s-1.3,2.3-1.5,2.7-.5.9-.7,1.3-.4.9-.6,1.3a6.42,6.42,0,0,1-1.4,2.2,2.24,2.24,0,0,0-.8,1.5,2.8,2.8,0,0,1-.9,1.9,31.71,31.71,0,0,0-2.8,4.6c-1.2,2.3-1.8,3.6-1.6,3.7s4.4.3,12.5.2c7.7,0,12.1.2,13.2.8.8.3,1.1,1.1.9,2.2l-.2,1.4-16.5.1c-11,.1-16.8,0-17.3-.1s-.5-.8.1-1.7c.1-.2.4-.7.8-1.4.9-1.4,1.6-2.7,2.2-3.8l7.1-12.2c1.7-2.9,3.4-5.8,5-8.7S18.36,3.32,19.06,2.12Z"/></g></g></svg>