<svg xmlns="http://www.w3.org/2000/svg" viewBox="0 0 32.7 43.64"><title>Sesquiquadrate</title><g id="Layer_2" data-name="Layer 2"><g id="Layer_1-2" data-name="Layer 1"><path id="Sesquiquadrate" d="M.4.34C.7,0,6.1-.06,16.7,0l16,.1v31.8l-15.6.6-1.6,3.2c-.9,1.8-1.2,2.8-1,3.2s1.5.6,3.8.6a8.14,8.14,0,0,1,2.4.4,1.42,1.42,0,0,1,.8.9A1.81,1.81,0,0,1,20.1,43a22.44,22.44,0,0,1-6.4.6c-3.8,0-5.9-.2-6.1-.6s.5-2.1,2.1-5.3a49.54,49.54,0,0,0,2.4-5.1c0-.3-1.8-.5-5.3-.5s-5.5-.2-6-.7-.6-5.6-.7-15.6S0,.74.4.34Zm27.5,27.5V4.44l-11.2-.1h-9c-1.6,0-2.4.3-2.6.6-.2.5-.2,4.4-.1,11.8l.1,11.1h5.4c2.3,0,3.7-.2,4.3-.7s1.6-2.1,3-4.8a1.63,1.63,0,0,1,.3-.6C19,20,20,19,21,18.74c1.5-.4,2.2-.1,2.2.9A8.78,8.78,0,0,1,21.8,23c-1.2,2.3-1.7,3.7-1.4,4.2s1.6.8,4,.7Z"/></g></g></svg>