<svg xmlns="http://www.w3.org/2000/svg" viewBox="0 0 36.28 36.4" id="Sextile"><path d="M16,6.2c0-3.7.1-5.7.4-5.9s.9-.3,1.9-.3a1.5,1.5,0,0,1,1.4.9,37.09,37.09,0,0,1,.4,4.7,37.08,37.08,0,0,0,.4,6.2c.2.5,1.7-.6,4.6-3.5a34,34,0,0,1,3.8-3.5,1.27,1.27,0,0,1,1.6.3c.7.7,1.1,1.2,1.1,1.7,0,.3-1.3,1.8-3.8,4.5s-3.7,4.1-3.6,4.4,1.9.5,5.3.5a36.61,36.61,0,0,1,4.3.2,3.84,3.84,0,0,1,1.8.9c1.3,1.5.6,2.4-2.2,2.7a14.79,14.79,0,0,1-2.2.1q-6.3.15-6.6.6a1,1,0,0,0-.1.4c0,.5,1.2,2,3.7,4.5l3.7,3.7-2.2,3.2-4.2-4.2c-2.9-2.8-4.5-4.2-4.7-4.2s-.5,2-.6,6.1l-.1,6.2h-3.6l-.2-6.2c-.1-4.1-.3-6.1-.6-6.1s-1.9,1.4-4.8,4.3A35.07,35.07,0,0,1,7,32c-.5.3-.9.1-1.4-.4A2.35,2.35,0,0,1,5,29.2a18,18,0,0,1,3.3-3.9q3.6-3.6,3.6-4.2c0-.4-1.7-.6-5-.6a17.51,17.51,0,0,1-5.6-.6A1.69,1.69,0,0,1,0,17.8a1.28,1.28,0,0,1,1.1-1A45,45,0,0,1,6,16.4c3.9-.1,5.8-.4,5.8-.8s-1.3-2.1-4-4.8l-4-4.1,2.7-2.6,4.4,4.3c1.2,1.2,2.3,2.2,3.2,3s1.5,1.1,1.6,1C15.95,11.9,16,9.9,16,6.2Z"/></svg>