<svg xmlns="http://www.w3.org/2000/svg" viewBox="0 0 47.65 49.12" id="Sun"><path d="M2,13.52a4,4,0,0,1,.6-1.2,20.22,20.22,0,0,1,1.9-2.6,40,40,0,0,1,2.9-3.2,29.27,29.27,0,0,1,4.1-3.2A21.9,21.9,0,0,1,16.6.82,25.37,25.37,0,0,1,25,0,22.22,22.22,0,0,1,35.9,3c2.9,1.8,5.6,4.7,8.2,8.8A25.1,25.1,0,0,1,47.5,23c.4,4.6,0,8.2-1.3,10.9a31.16,31.16,0,0,1-5.8,8.6,30.39,30.39,0,0,1-9,5.5c-1.5.7-4.1,1-7.6,1.1s-6-.2-7.4-.9-2.8-1.2-4.1-1.7a18.64,18.64,0,0,1-5-3.7c-2.1-2-3.6-3.6-4.2-4.9a31.73,31.73,0,0,1-2.7-6.3,36.66,36.66,0,0,1-.4-6.9c0-4.4.3-7.3,1-8.7A7.79,7.79,0,0,0,2,13.52Zm27-8.7c-1.7-.9-4.4-1.1-8.2-.5s-6.5,1.6-8.1,3.1c-1.5,1.3-2.9,2.7-4.4,4.2a11.29,11.29,0,0,0-2.1,2.6A15.17,15.17,0,0,1,5,17.42a17,17,0,0,0-1.3,7.3,21,21,0,0,0,1.4,7.9A19.36,19.36,0,0,0,9.5,39a26.35,26.35,0,0,0,6.3,4.8,17.75,17.75,0,0,0,7.7,1.7,17.7,17.7,0,0,0,7.7-1.6,19.92,19.92,0,0,0,6.1-4.5,21.49,21.49,0,0,0,4.5-6.2,19.38,19.38,0,0,0,1.5-7.8,22.62,22.62,0,0,0-1.4-8.3,23.35,23.35,0,0,0-4.5-6.8Q34.1,6.57,32,6.12A22.69,22.69,0,0,1,29,4.82Zm-7.3,14c2.2-.3,3.7-.4,4.4-.1a8.28,8.28,0,0,1,2.7,2.7c2,2.6,1.9,5-.2,7.2a7,7,0,0,1-4.9,2.3,7.2,7.2,0,0,1-4.9-2.3,4.39,4.39,0,0,1-1.3-1.8,4,4,0,0,1,0-2.2,9.75,9.75,0,0,1,1.6-3.9A4.22,4.22,0,0,1,21.7,18.82Z"/></svg>