<svg xmlns="http://www.w3.org/2000/svg" viewBox="0 0 49.37 53.3" id="Taurus"><path d="M.5,2.62A1.78,1.78,0,0,1,.1.82C.3.22.6-.08,1,0a14.72,14.72,0,0,1,3.2.9,11.78,11.78,0,0,1,4.2,2.8c1.5,1.4,2.2,2.5,2.2,3.3a.87.87,0,0,0,.4.7c.2.2.6.7,1.1,1.3a16.29,16.29,0,0,1,1.5,2.7,14.45,14.45,0,0,0,3.7,4.6,11.11,11.11,0,0,0,4.6,2.5,12.34,12.34,0,0,0,5-.2,8.43,8.43,0,0,0,4-1.6,24.93,24.93,0,0,0,3.3-4.2,62.9,62.9,0,0,0,3.6-5.9,11.67,11.67,0,0,1,5.6-5.1c2.6-1.2,4.4-1.3,5.5-.2a1.36,1.36,0,0,1,.3,1.7,1.55,1.55,0,0,1-1.5.9,4.76,4.76,0,0,0-2.7,1q-1.5.9-1.5,1.8a3,3,0,0,1-1,1.6,8.29,8.29,0,0,0-1.5,2.1c-2.8,5.3-4.7,7.9-5.6,7.9-1.1,0-1.4.5-1,1.6a5.83,5.83,0,0,0,1.7,2,17.92,17.92,0,0,1,3.7,4.7,10.72,10.72,0,0,1,1.4,3.3,32,32,0,0,1,.3,5.5c0,2.6-.1,4.4-.2,5.4a6.76,6.76,0,0,1-1.2,3c-3.4,5.6-7.8,8.7-13.3,9.1A16.84,16.84,0,0,1,15,49.92a17.67,17.67,0,0,1-7-10.3c-.7-2.8-1-4.7-.7-5.8a31.22,31.22,0,0,1,1.9-6.2,14.62,14.62,0,0,1,3.2-4l3.2-3.2-1.7-2.2c-1.2-1.4-1.9-2.1-2.2-2.1a.51.51,0,0,1-.5-.4c-.2-.3-.5-.9-1-1.8a20.94,20.94,0,0,0-1.7-2.8c-1-1.6-1.6-2.7-1.9-3.3a7.61,7.61,0,0,0-2.1-2.7c-1.1-1-1.8-1.5-2.4-1.5A2.57,2.57,0,0,1,.5,2.62Zm29.9,21.6a13.4,13.4,0,0,0-8.2-1.3,13.62,13.62,0,0,0-7.4,3.6,12.31,12.31,0,0,0-2.6,4.7,10.22,10.22,0,0,0-.6,5.3,15.24,15.24,0,0,0,2.6,6.6,14.17,14.17,0,0,0,5.5,4.1,11,11,0,0,0,6.6,1.2,16.89,16.89,0,0,0,6-1.9,12.6,12.6,0,0,0,4.4-4.2,10.4,10.4,0,0,0,1.7-5.9C38.2,31,35.6,27,30.4,24.22Z"/></svg>