<svg xmlns="http://www.w3.org/2000/svg" viewBox="0 0 41.85 36" id="Trine"><path d="M18.22,3.1c1.1-1.7,1.9-2.7,2.6-3s1.2.1,1.7,1.2c.1.3,1.6,2.9,4.4,7.8s5.5,9.6,8.2,14.1,4,6.9,4.1,7.1c1.9,3.2,2.8,5,2.6,5.3s-7.2.4-20.9.4S.22,35.8,0,35.5c-.1-.1.2-.9.9-2.2s1.5-2.8,2.6-4.6a33.3,33.3,0,0,0,1.9-3.3c.6-1.2,2.8-4.9,6.5-11.4S17.62,3.9,18.22,3.1Zm4.4,6.6c-.8-1.4-1.4-2-2-1.8s-1.5,1.5-2.7,3.7c-.7,1.3-1.7,3-2.8,5s-2.2,3.8-3.1,5.3-1.7,3-2.6,4.5A29.62,29.62,0,0,0,7.62,30c-.4.9-.5,1.4-.4,1.5s4.8.4,13.6.4,13.4-.1,13.6-.3-.1-1-.8-2.4A45.72,45.72,0,0,0,31,24.7c-1-1.7-1.6-2.7-1.7-3-.2-.5-.5-.9-.7-1.3a8.65,8.65,0,0,1-.7-1q-.45-.6-1.8-3C25.32,14.6,24.12,12.4,22.62,9.7Z"/></svg>