<svg xmlns="http://www.w3.org/2000/svg" viewBox="0 0 40.83 50.54"><title>Uranus</title><g id="Layer_2" data-name="Layer 2"><g id="Layer_1-2" data-name="Layer 1"><path id="Uranus" d="M37.1,1a4.87,4.87,0,0,1,2.2-1c.8-.1,1.3,0,1.5.4s-.6,1.8-2.2,4.4a28.49,28.49,0,0,0-3.7,7.5,25.93,25.93,0,0,0-.7,7.8,25.89,25.89,0,0,0,1.2,7.3,32,32,0,0,0,3.7,7A6,6,0,0,1,40.3,37c0,.5-.5.8-1.4.8-1.1,0-2.5-1.5-4.2-4.4a29.3,29.3,0,0,1-3.6-8.5,13.57,13.57,0,0,0-1.4-4.4c-.4-.5-1.8-.8-4.1-.8H22v4.2c0,2.4.2,3.9.7,4.7s1.8,1.8,4.1,3.2a10.09,10.09,0,0,1,3.5,3.6,9.79,9.79,0,0,1,1.4,4.8,10.49,10.49,0,0,1-1.8,5,11.53,11.53,0,0,1-3.6,4.1,11.73,11.73,0,0,1-6,1.2,15.24,15.24,0,0,1-3.7-.3,6,6,0,0,1-2.3-1.3,11.06,11.06,0,0,1-3.9-6.2,9.78,9.78,0,0,1,.6-6.8,12.59,12.59,0,0,1,2.2-3.2,15.74,15.74,0,0,1,3.3-2.1l2.6-1.2-.4-9.2L15.3,20a21.91,21.91,0,0,0-2.9.1,2,2,0,0,0-1.3.8,5.18,5.18,0,0,0-.7,1.8c-.2.9-.5,1.8-.7,2.9a29.5,29.5,0,0,1-1.8,4.5,48.53,48.53,0,0,1-3.5,6,3.64,3.64,0,0,1-2.3,1.6,1.84,1.84,0,0,1-2-.5c-.3-.4.1-1.4,1.2-2.8a34.22,34.22,0,0,0,4.4-8.1,25.54,25.54,0,0,0,1.9-8.1c0-1.8-.8-4.7-2.3-8.6s-2.8-6.2-3.7-6.8a.94.94,0,0,1-.5-1.3A1.39,1.39,0,0,1,2.5.74c1.2,0,2.7,1.4,4.4,4.1A24.18,24.18,0,0,1,10.4,13l.5,2.4h7.8l.3-3.9a10.73,10.73,0,0,1,.5-3.2,1,1,0,0,1,1-.6.92.92,0,0,1,1,.6,12.19,12.19,0,0,1,.4,3.2l.4,3.9h7.8l.9-2.7a39,39,0,0,1,3.1-7.3A17.14,17.14,0,0,1,37.1,1ZM25.6,35a8.67,8.67,0,0,0-2.2-1.7,7.84,7.84,0,0,0-2.6-.4,6.8,6.8,0,0,0-4.8,1.6,6.67,6.67,0,0,0-2.2,4.4c-.3,3.4.6,5.8,3,7.2a6.81,6.81,0,0,0,7,.4,7.85,7.85,0,0,0,3-2.6,7.09,7.09,0,0,0,.8-3.9,6.61,6.61,0,0,0-.4-2.8A14.2,14.2,0,0,0,25.6,35Z"/></g></g></svg>