<svg xmlns="http://www.w3.org/2000/svg" viewBox="0 0 32.14 50.36"><title>Venus</title><g id="Layer_2" data-name="Layer 2"><g id="Layer_1-2" data-name="Layer 1"><path id="Venus" d="M12.17.53a11.7,11.7,0,0,1,7.8.3,18.38,18.38,0,0,1,7.5,4.7,14.9,14.9,0,0,1,4.2,7.2,16.53,16.53,0,0,1-1.1,11,16,16,0,0,1-7.7,7.7l-3.8,1.9c-.5.2-.7,1.1-.7,2.7a4.31,4.31,0,0,0,.8,3c.4.4,2,.6,4.9.6h4.3v3.6l-4.5.1c-2.6.1-4.2.4-4.9.9s-.9,1.5-.7,3.1a5.1,5.1,0,0,1,0,1.8q-.15.45-1.2.9a2.35,2.35,0,0,1-2.6-.1c-.6-.5-.9-1.7-1-3.4l-.1-2.8-10.2-.6v-3.6l10.2-.6v-2.7q0-2.55-.9-3a37.13,37.13,0,0,1-7.1-4A14.53,14.53,0,0,1,2,25.13a19.32,19.32,0,0,1-1.8-7.3,23.8,23.8,0,0,1-.1-4.5,11,11,0,0,1,1.1-3.2,19.45,19.45,0,0,1,4.4-6A17.22,17.22,0,0,1,12.17.53Zm9.7,5.4a6.76,6.76,0,0,0-2.4-1.2,13.3,13.3,0,0,0-3.2-.3c-4.6,0-8,1.8-10.2,5.1s-2.6,7.5-1.2,12.3a6.48,6.48,0,0,0,1.2,2.5,13.65,13.65,0,0,0,2.4,2.1,14.39,14.39,0,0,0,10.6,2.4q2.55-.45,5.4-3.6a12.09,12.09,0,0,0,3.3-6,14,14,0,0,0-1-7.5A14.42,14.42,0,0,0,21.87,5.93Z"/></g></g></svg>