<svg xmlns="http://www.w3.org/2000/svg" viewBox="0 0 55.63 49.08"><title>Vesta</title><g id="Layer_2" data-name="Layer 2"><g id="Layer_1-2" data-name="Layer 1"><path id="Vesta" d="M.17,23.88c.2-.5,2.7-.7,7.4-.6h1c1.3,0,2.3.1,2.8.1a8.08,8.08,0,0,1,2,.3,4.11,4.11,0,0,1,1.5.5,8.25,8.25,0,0,1,1.2,1.1,8.3,8.3,0,0,1,1.3,1.6c.3.5.8,1.3,1.5,2.5a3.49,3.49,0,0,0,.6.9c1.3,2.1,2.8,4.2,4.4,6.4s2.6,3.6,2.9,4,.7.7,1,.5a12.32,12.32,0,0,0,2.4-2.4c1.8-2,2.7-3.2,2.7-3.5a6.78,6.78,0,0,1,.9-1.7q.9-1.35,2.1-3a11.38,11.38,0,0,0,1.4-2.4c.4-.9.7-1.5.9-1.9s.5-.7.9-1.2a3.61,3.61,0,0,1,.9-.9,12.67,12.67,0,0,1,1.5-.4c.8-.2,1.5-.3,2.1-.4a27.4,27.4,0,0,0,3.1-.3q4.8-.3,6-.3a3.21,3.21,0,0,1,2,1q1.2,1.2.9,2.1c-.2.6-1.2,1-3.1,1.3a19.55,19.55,0,0,1-5.4.1,5.77,5.77,0,0,0-3.9.6c-1,.7-3.7,4.6-8.2,11.5l-2.5,3.8a12.44,12.44,0,0,0-1.9,3.3c0,.4-.4.9-1.1,1.6a2.81,2.81,0,0,1-1.7,1,.78.78,0,0,1-.7-.3c-.1-.2-.5-.8-1-1.6a21.18,21.18,0,0,0-2-2.8,27.31,27.31,0,0,1-2.7-3.7c-.8-1.4-2.2-3.5-4.1-6.4s-3.2-4.7-3.7-5.4a3.49,3.49,0,0,0-2-1.3,27,27,0,0,0-5.3-.3c-3.5,0-5.4-.2-5.8-.6-.2-.1-.3-.4-.4-.9A3.92,3.92,0,0,1,.17,23.88Zm27.7,6.2q.45,0,3.9-4.8c2.3-3.2,3.6-4.8,4-4.8a1.68,1.68,0,0,1,1.5,1,2.41,2.41,0,0,1,.3,2,24.79,24.79,0,0,1-2.3,4.1,56,56,0,0,1-3.4,4.9,5.27,5.27,0,0,0-1.2,2.2c0,.4-.5,1.1-1.6,2-.8.7-1.2,1-1.4,1s-.5-.2-.8-.8a21.14,21.14,0,0,0-1.8-2.6c-.9-1.2-1.7-2.2-2.3-3.1a4.6,4.6,0,0,1-1-1.6,7.15,7.15,0,0,0-1.4-2.3,26.48,26.48,0,0,1-2.3-3.9c-.6-1.3-.7-2.2-.2-2.7a1.5,1.5,0,0,1,1.8-.3,5.62,5.62,0,0,1,2.1,1.8C25.17,27.48,27.27,30.08,27.87,30.08Zm-.5-28.7a3.3,3.3,0,0,1,2.2-1.3,1.84,1.84,0,0,1,2,.5q.3.6-.6,2.4a5.84,5.84,0,0,0-.6,2,7.06,7.06,0,0,0,1.2,2.3c2.2,3.3,2.1,6.8-.3,10.4a9.1,9.1,0,0,1-1.8,2.2,1.55,1.55,0,0,1-1.4.4,1.44,1.44,0,0,1-1.5-1.6,5.32,5.32,0,0,1,1.3-3.2,5.16,5.16,0,0,0,1.4-3.2,7.89,7.89,0,0,0-1.4-3.6C26.17,5.88,26,3.38,27.37,1.38Z"/></g></g></svg>